<svg xmlns="http://www.w3.org/2000/svg" fill="none" viewBox="0 0 332 87">
  <path fill="#1F1F1F" d="M63.49 4.3l.01 1-.01-1zM37.34 25.84a1 1 0 101.88.66l-1.88-.66zm72.18-3.5v1a1 1 0 00.88-.53l-.88-.47zM92.13 16.6l.52-.86-.52.86zM90.1 9.8l.26.97-.26-.96zm6.05 23.25l.27-.96-.27.96zm6.22 20.46l-.45-.89.45.9zm-26.39-8.6l-1-.05 1 .05zm21.45 2.28l-.05-1 .05 1zm25.8-15.37l-.36-.93.36.93zM124.5 55l-.22-.97.22.97zm14.25-22.22l-.18.99.18-.99zM124.5 85.14l-.14.99.14-1zm2.87-21.15l-.54-.85.54.85zm21.25-15.82l.79.62-.8-.62zm5.04-16.35v-1 1zm-1.42 24.51l-.57.82.57-.82zM169 31.83l-.59.8.59-.8zm26.08 8.4a1 1 0 102 .08l-2-.09zm5.64 12.5l.58.8-.58-.8zm20.26-14.34l1 .07-1-.07zm-15.71 6.23l.98.17-.98-.17zm22.04 7.31l-.7-.72.7.72zm12.16 3.46l-.49-.87.49.87zm18.98-38.8l.97.26-.97-.25zm-5-12.07l-.7-.72.7.72zm-2.42 54.13l-.73.69.73-.69zm26.44-7.5a1 1 0 00-1.34-1.48l1.34 1.48zM38.28 26.18l.94.33.01-.02a7.72 7.72 0 01.17-.45c.12-.3.3-.76.55-1.32l-1.83-.81a36.8 36.8 0 00-.77 1.9l-.01.02v.01l.94.34zm2.08-2.37c.47-.99 1.08-2.2 1.84-3.5l-1.74-1a48.68 48.68 0 00-1.9 3.65l1.8.85zm2.34-4.36a42.64 42.64 0 012.2-3.29l-1.6-1.19a44.66 44.66 0 00-2.3 3.44l1.7 1.04zm2.8-4.07c.79-1 1.65-2 2.59-2.96l-1.43-1.4c-1 1.01-1.9 2.07-2.73 3.13l1.57 1.23zm3.29-3.65c.93-.89 1.93-1.73 3-2.5l-1.16-1.62a29.21 29.21 0 00-3.22 2.67l1.38 1.45zm3.8-3.04C53.68 8 54.8 7.38 56 6.87l-.78-1.85a23.92 23.92 0 00-3.72 2l1.1 1.67zm4.3-2.18c1.19-.44 2.43-.77 3.73-.98l-.31-1.97c-1.44.23-2.8.6-4.1 1.07l.69 1.88zm4.68-1.1c.63-.07 1.27-.11 1.93-.12l-.02-2c-.73.01-1.43.05-2.12.13l.21 1.99zm1.93-.12c.6 0 1.18.01 1.77.05l.12-2c-.63-.04-1.27-.06-1.91-.05l.02 2zm2.65.12c1.18.12 2.34.32 3.49.6l.47-1.95c-1.23-.3-2.49-.52-3.77-.64l-.2 1.99zm4.35.81a33 33 0 013.39 1.14l.73-1.86a35 35 0 00-3.6-1.2l-.52 1.92zm4.22 1.48c1.1.46 2.18.97 3.26 1.52l.91-1.78a49.33 49.33 0 00-3.4-1.59l-.77 1.85zm4.06 1.94a78.5 78.5 0 013.17 1.8l1.02-1.73a80.32 80.32 0 00-3.25-1.83l-.94 1.76zm3.95 2.26l1.56.96 1.06-1.7-1.58-.97-1.04 1.71zm2.63.95c.56-.36 1.18-.7 1.89-1.01L86.44 10c-.8.35-1.51.74-2.16 1.16l1.08 1.68zm2.9-1.42c.64-.24 1.34-.46 2.1-.66l-.5-1.93c-.82.21-1.59.45-2.3.72l.7 1.87zm2.1-.66a56.4 56.4 0 011.99-.48l-.43-1.95c-.67.15-1.36.31-2.07.5l.5 1.93zm3-.7c1.45-.28 2.79-.48 4.01-.6l-.19-1.99c-1.3.12-2.7.33-4.2.64l.38 1.96zm5.03-.67c1.5-.09 2.82-.04 3.97.1l.26-1.98c-1.3-.17-2.74-.21-4.35-.12l.12 2zm4.94.26a9.8 9.8 0 013.5 1.36l1.1-1.67a11.8 11.8 0 00-4.21-1.65l-.4 1.96zm4.23 1.91c.98.84 1.6 1.87 1.94 2.99l1.92-.6a8.38 8.38 0 00-2.55-3.9l-1.3 1.51zm2.16 3.88a9.63 9.63 0 01-.11 3.76l1.95.43c.32-1.45.4-3.01.13-4.54l-1.97.35zm-.36 4.68c-.2.63-.45 1.23-.73 1.76l1.77.93c.34-.64.64-1.35.87-2.1l-1.91-.59zm.16 1.22c-.6 0-1.2-.02-1.78-.06l-.15 2c.63.04 1.28.06 1.93.06v-2zm-2.67-.14c-1.2-.13-2.36-.35-3.51-.64l-.5 1.93c1.24.32 2.5.56 3.79.7l.22-2zm-4.37-.88a31 31 0 01-3.38-1.22l-.78 1.85c1.18.5 2.38.93 3.6 1.29l.56-1.92zm-4.21-1.58a46.02 46.02 0 01-3.25-1.63l-.96 1.75c1.13.62 2.25 1.2 3.38 1.7l.83-1.82zm-4.04-2.08a71 71 0 01-1.58-.93l-1.04 1.71 1.63.96.99-1.74zm-1.58-.93l-1.46-.9-1.06 1.7 1.48.91 1.04-1.7zm-2.19-1.35l-2.91-1.85-1.07 1.7 2.92 1.84 1.06-1.7zm-3.65-2.31l-1.46-.92-1.06 1.7 1.46.91 1.06-1.7zm-2.53-.91c-.66.42-1.24.87-1.76 1.36l1.37 1.45c.42-.4.9-.77 1.47-1.13l-1.08-1.68zm-2.54 2.18a8.23 8.23 0 00-1.9 4.15l1.97.3c.16-1.11.63-2.18 1.46-3.16l-1.53-1.29zm-2 5.3c0 1.47.37 2.94 1.05 4.37l1.8-.86a8.04 8.04 0 01-.84-3.5h-2zM81.32 24a16.7 16.7 0 002.67 3.4l1.41-1.42a14.71 14.71 0 01-2.36-2.99L81.31 24zm3.45 4.13c1 .9 2.15 1.75 3.41 2.53l1.05-1.7a22.16 22.16 0 01-3.13-2.32l-1.33 1.5zm4.32 3.07c1.18.66 2.45 1.27 3.8 1.8l.74-1.85a28.33 28.33 0 01-3.55-1.7l-.99 1.75zm4.79 2.18c.65.23 1.31.44 2 .64l.55-1.92c-.64-.18-1.27-.39-1.88-.6l-.67 1.88zm2 .64c.62.18 1.26.43 1.9.73l.85-1.81c-.73-.34-1.46-.63-2.2-.84l-.55 1.92zm2.83 1.2a18.7 18.7 0 013.4 2.4l1.33-1.49a20.66 20.66 0 00-3.77-2.67l-.96 1.76zm4.16 3.12c1.01 1 1.89 2.1 2.56 3.25l1.72-1.02a18.17 18.17 0 00-2.87-3.65l-1.4 1.42zm3.03 4.14c.3.63.53 1.25.69 1.87l1.94-.48a11.8 11.8 0 00-.82-2.25l-1.8.86zm1.18.76c-.6.32-1.22.63-1.84.92l.83 1.82c.67-.3 1.33-.64 1.97-.99l-.96-1.75zm-2.78 1.33c-1.26.52-2.56.94-3.9 1.22l.42 1.96a24.7 24.7 0 004.24-1.33l-.77-1.85zm-4.9 1.41c-.66.1-1.33.18-2.01.22l.1 2c.76-.05 1.5-.13 2.23-.24l-.32-1.98zm-2.01.22c-.64.03-1.27.03-1.88.01l-.08 2c.67.03 1.36.02 2.06-.02l-.1-2zm-2.82-.05a22.8 22.8 0 01-3.72-.64l-.5 1.94c1.28.32 2.63.57 4.05.7l.17-2zm-4.63-.9a33.55 33.55 0 01-3.6-1.3l-.78 1.85c1.17.5 2.44.97 3.81 1.38l.57-1.92zm-4.49-1.68c-1.34-.6-2.46-1.16-3.56-1.67l-.84 1.82c1 .46 2.27 1.09 3.58 1.67l.82-1.82zm-4.5-2.08a9.3 9.3 0 00-2.48-.75c-.8-.09-1.65.04-2.32.7l1.4 1.43c.1-.1.26-.2.7-.14.47.05 1.1.25 1.92.6l.78-1.84zm-5.55 1.15a7.74 7.74 0 00-.4 2.23l2 .11c.04-.77.14-1.3.27-1.65l-1.87-.7zm-.4 2.23c-.05.7 0 1.41.1 2.1l1.98-.31a7.83 7.83 0 01-.09-1.68l-2-.11zm.32 3.13c.36 1.33.99 2.59 1.84 3.72l1.6-1.2a8.86 8.86 0 01-1.5-3.04L75.3 48zm2.5 4.52c.88.98 1.94 1.85 3.15 2.58L82 53.38a11.83 11.83 0 01-2.7-2.21l-1.49 1.34zm4.03 3.07c1.15.6 2.41 1.07 3.77 1.41l.48-1.94c-1.21-.3-2.32-.72-3.32-1.24l-.92 1.77zm4.74 1.63c1.26.24 2.58.37 3.97.37v-2c-1.27 0-2.46-.12-3.58-.33l-.39 1.96zm4.96.35c1.26-.06 2.57-.23 3.92-.51l-.42-1.96c-1.24.26-2.44.42-3.6.47l.1 2zm4.88-.73c1.22-.3 2.46-.7 3.73-1.21l-.74-1.86c-1.19.47-2.35.85-3.48 1.13l.49 1.94zm4.63-1.59c.59-.26 1.18-.54 1.78-.84l-.91-1.78c-.56.28-1.11.55-1.67.79l.8 1.83zm1.78-.84c.8-.4 1.5-.84 2.14-1.3l-1.19-1.61c-.53.39-1.15.77-1.86 1.13l.9 1.78zm3.13-2.12a8.46 8.46 0 002.67-4.48l-1.96-.42a6.46 6.46 0 01-2.07 3.43l1.36 1.47zm2.84-5.8a9.13 9.13 0 00-.28-2.62l-1.94.48c.17.7.25 1.38.22 2.04l2 .1zm-.77-1.5c.6-.33 1.2-.68 1.77-1.04l-1.05-1.7c-.55.35-1.11.67-1.68.99l.96 1.75zm2.64-1.6a47.62 47.62 0 003.3-2.39l-1.25-1.57c-1 .8-2.05 1.57-3.16 2.3l1.1 1.67zm4.09-3.03c1.1-.9 2.12-1.8 3.05-2.65l-1.34-1.48c-.92.84-1.92 1.71-2.98 2.59l1.27 1.54zm3.8-3.33c1.12-1.03 2.08-1.95 2.92-2.7l-1.33-1.49c-.85.76-1.86 1.72-2.95 2.72l1.36 1.47zm3.65-3.32c.66-.55 1.1-.84 1.37-.94l-.7-1.87c-.62.23-1.28.72-1.95 1.27l1.28 1.54zm1.37-.94c-.02 0-.19.06-.41-.04a.62.62 0 01-.22-.16l-.05-.08.02.06.02.18c.02.16.03.37.02.63l2 .05a4.24 4.24 0 00-.22-1.7c-.11-.27-.33-.6-.73-.8-.42-.19-.84-.13-1.14-.01l.71 1.87zm-.68 1.55a61.1 61.1 0 01-.58 3.97l1.97.33c.26-1.53.49-2.96.6-4.1l-2-.2zm-.76 4.97c-.22 1.3-.46 2.67-.68 4.05l1.98.31c.21-1.36.45-2.72.68-4.02l-1.98-.34zm-.83 5.07a59.45 59.45 0 00-.5 4.13l2 .15c.1-1.24.27-2.6.47-3.99l-1.97-.3zm-.56 5.19c-.07 1.67.01 3.25.45 4.43l1.87-.69c-.28-.78-.39-2.03-.32-3.66l-2-.08zm1.14 5.63c.71.8 1.72 1.06 2.85.8l-.45-1.95c-.55.13-.76-.01-.9-.18l-1.5 1.33zm2.85.8a6.45 6.45 0 002.3-1.1l-1.17-1.61c-.56.4-1.08.64-1.58.76l.45 1.95zm3.22-1.85c1.03-.95 2-2.17 2.9-3.53l-1.68-1.1a16.97 16.97 0 01-2.57 3.16l1.35 1.47zm3.49-4.47a50.75 50.75 0 002.11-3.88l-1.79-.89a48.92 48.92 0 01-2.03 3.72l1.7 1.05zm2.6-4.86c.64-1.35 1.24-2.7 1.8-3.98l-1.84-.8c-.55 1.27-1.14 2.6-1.77 3.91l1.8.87zm2.22-4.98c.65-1.51 1.22-2.87 1.7-3.96l-1.81-.82c-.5 1.12-1.09 2.5-1.73 4l1.84.78zm2.15-4.9c.26-.55.47-.92.63-1.15l.1-.12a.54.54 0 01-.15.08.8.8 0 01-.42.04l.35-1.97a1.3 1.3 0 00-1.04.3c-.19.15-.35.34-.47.52-.26.36-.53.86-.8 1.42l1.8.87zm.16-1.15a.9.9 0 01-.59-.38l-.09-.18.02.2c.01.29 0 .76-.05 1.4l1.99.17c.05-.67.08-1.24.06-1.67-.01-.2-.03-.43-.09-.64-.03-.1-.08-.25-.19-.4a1.1 1.1 0 00-.7-.47l-.36 1.97zm-.82 2.1c-.12 1.15-.32 2.6-.57 4.26l1.97.3c.26-1.68.46-3.15.6-4.35l-2-.21zm-.74 5.32c-.2 1.31-.45 2.74-.73 4.25l1.97.36c.28-1.53.52-2.97.74-4.3l-1.98-.31zm-.92 5.31c-.25 1.37-.52 2.79-.81 4.25l1.96.39.82-4.27-1.97-.37zm-1.03 5.3c-.28 1.4-.58 2.81-.89 4.24l1.96.42.9-4.25-1.97-.4zm-1.12 5.3l-.47 2.1 1.95.45.47-2.13-1.95-.43zm-.47 2.1l-.43 1.83 1.95.46.43-1.84-1.95-.45zm-.64 2.74l-.9 3.64 1.93.5.91-3.67-1.94-.47zm-1.14 4.55a174.9 174.9 0 01-.98 3.61l1.92.55c.34-1.19.67-2.41 1-3.66l-1.94-.5zm-1.24 4.5c-.36 1.26-.73 2.45-1.1 3.58l1.91.62c.37-1.15.74-2.37 1.11-3.63l-1.92-.56zm-1.38 4.47a65.42 65.42 0 01-1.27 3.48l1.86.74c.43-1.09.87-2.3 1.3-3.59l-1.9-.63zm-1.62 4.33a19.9 19.9 0 01-1.63 3.18l1.66 1.12c.61-.92 1.22-2.12 1.81-3.51l-1.84-.79zm-2.12 3.83c-.23.27-.41.41-.54.48a.47.47 0 01-.14.06l-.29 1.98c1.03.15 1.88-.52 2.48-1.2l-1.5-1.32zm-.69.54c-.6-.09-1.19-.23-1.77-.42l-.63 1.9c.69.23 1.4.4 2.12.5l.28-1.98zm-2.62-.75a8.64 8.64 0 01-2.92-2.04l-1.48 1.35a10.63 10.63 0 003.6 2.52l.8-1.83zm-3.46-2.72c-.65-.92-1.04-2-1.06-3.2l-2 .04a7.69 7.69 0 001.42 4.3l1.64-1.14zm-1.01-4.05c.11-1.01.49-2.14 1.2-3.37l-1.72-1a10.74 10.74 0 00-1.47 4.13l1.99.24zm1.7-4.15c.63-.92 1.44-1.88 2.47-2.9l-1.4-1.42a21.13 21.13 0 00-2.72 3.19l1.66 1.13zm3.18-3.55c.87-.8 1.87-1.6 3.02-2.44l-1.17-1.62c-1.2.87-2.27 1.73-3.2 2.58l1.35 1.48zm3.83-3.01c.52-.36 1.07-.72 1.64-1.09l-1.07-1.69c-.6.38-1.16.76-1.7 1.13l1.13 1.65zm1.64-1.09l1.43-.9-1.08-1.69-1.42.9 1.07 1.7zm2.14-1.36a476 476 0 002.83-1.83l-1.09-1.68-2.82 1.83 1.08 1.68zm3.54-2.3l1.41-.92-1.1-1.67-1.4.92 1.1 1.68zm1.41-.92l1.53-1.02-1.12-1.66-1.5 1 1.1 1.68zm2.28-1.53c1.11-.74 2.1-1.43 3-2.06l-1.14-1.64c-.89.63-1.88 1.3-2.98 2.05l1.12 1.65zm3.75-2.59a99.76 99.76 0 002.96-2.18l-1.22-1.58c-.81.62-1.77 1.33-2.9 2.13l1.16 1.63zm3.69-2.74a34.34 34.34 0 002.82-2.46l-1.4-1.42c-.63.61-1.46 1.35-2.66 2.3l1.24 1.58zm3.49-3.14c.5-.56.87-1.03 1.2-1.46l-1.57-1.23c-.33.43-.66.84-1.1 1.33l1.47 1.36zm1.2-1.46c.3-.39.63-.98.95-1.65l-1.8-.87a8.32 8.32 0 01-.72 1.3l1.58 1.22zm1.31-2.45c.41-.92.86-2.01 1.3-3.18l-1.88-.7c-.42 1.14-.85 2.2-1.24 3.07l1.82.81zm1.6-3.98l.56-1.62-1.9-.64a87.8 87.8 0 01-.55 1.57l1.88.69zm.56-1.62c.2-.57.4-1.16.57-1.73l-1.9-.6-.56 1.69 1.9.64zm.84-2.6c.4-1.3.73-2.53.95-3.56l-1.95-.42c-.2.96-.52 2.13-.9 3.4l1.9.58zm1.13-4.5c.08-.53.13-1.05.1-1.47-.03-.2-.08-.48-.24-.75-.2-.32-.55-.6-1.04-.6v2a.8.8 0 01-.67-.36c-.07-.11-.06-.18-.05-.09.02.16 0 .47-.07.96l1.97.31zm-1.18-2.82c-.49 0-.8.3-.94.45-.15.18-.26.38-.33.55-.17.36-.3.82-.43 1.33l1.94.47c.12-.47.22-.79.3-.97l.03-.06a.76.76 0 01-.57.23v-2zm-1.9 3.24c-.2 1-.38 2.23-.54 3.59l1.98.24c.16-1.33.34-2.51.53-3.45l-1.97-.38zm-.65 4.48l-.18 1.79 1.99.18.18-1.75-1.99-.22zm-.18 1.79c-.07.7-.13 1.42-.18 2.15l2 .15c.05-.72.1-1.43.17-2.12l-2-.18zm-.26 3.23c-.1 1.45-.17 2.92-.2 4.31l1.99.06c.04-1.37.11-2.8.2-4.24l-1.99-.13zm-.23 5.4c-.03 1.62 0 3.12.08 4.37l2-.14c-.09-1.17-.11-2.61-.08-4.2l-2-.03zm.18 5.49c.07.56.16 1.08.3 1.5.06.2.14.42.24.61.1.19.26.42.5.59l1.16-1.64c.1.07.12.13.1.09a7.2 7.2 0 01-.3-1.4l-2 .25zm1.05 2.7c.74.51 1.48.12 1.83-.14.39-.3.76-.74 1.1-1.22l-1.63-1.16c-.32.44-.54.68-.67.78-.07.05-.05.02.05 0 .13-.03.32 0 .47.1l-1.15 1.64zm3.53-2.28c.61-1 1.3-2.26 2.02-3.68l-1.78-.91a53.7 53.7 0 01-1.94 3.54l1.7 1.05zm2.5-4.6l1.82-3.7-1.79-.88c-.63 1.28-1.24 2.52-1.83 3.68l1.8.9zm2.28-4.62c.6-1.22 1.22-2.46 1.84-3.66l-1.78-.92c-.63 1.22-1.25 2.47-1.85 3.7l1.79.88zm2.31-4.57a83.64 83.64 0 011.96-3.57l-1.73-1.01a86.74 86.74 0 00-2 3.65l1.77.93zm2.48-4.44c.83-1.35 1.6-2.44 2.29-3.16l-1.45-1.38a21.9 21.9 0 00-2.55 3.5l1.7 1.04zm2.92-3.74c.28-.2.47-.28.57-.3h.07l.06.04 1.17-1.63a2.14 2.14 0 00-1.63-.38c-.53.1-1.02.36-1.44.68l1.2 1.6zm.7-.26c.02.01.21.2.23 1.03l2-.03c-.02-.92-.2-2.01-1.06-2.63l-1.16 1.63zm.19 1.92c-.1 1.05-.36 2.35-.71 3.83l1.95.46c.35-1.5.64-2.91.75-4.1l-2-.19zm-.94 4.8c-.3 1.24-.65 2.59-.96 3.92l1.95.46c.31-1.33.64-2.63.95-3.9l-1.94-.48zm-1.19 4.9c-.3 1.37-.59 2.75-.76 4.05l1.98.27c.16-1.22.43-2.53.73-3.87l-1.95-.44zm-.89 5.09c-.15 1.57-.13 3.1.24 4.36l1.92-.56c-.27-.9-.3-2.13-.16-3.61l-2-.2zm.71 5.5A4 4 0 00168 56.5c.75.38 1.62.54 2.61.5l-.07-2c-.74.03-1.27-.1-1.64-.28a2 2 0 01-.86-.85l-1.75.99zm5.44 2.04c1.17-.19 2.52-.6 4.08-1.25l-.77-1.85c-1.46.61-2.66.97-3.63 1.12l.32 1.98zm5.01-1.66c1.12-.5 2.34-1.13 3.68-1.88l-.97-1.75c-1.3.73-2.48 1.33-3.54 1.81l.83 1.82zm4.54-2.37c.57-.33 1.16-.69 1.78-1.07L182 50.1c-.6.37-1.18.72-1.74 1.04l1 1.73zm2.13-2.4c-.29-.53-.52-1.06-.7-1.6l-1.9.66c.22.64.5 1.28.85 1.9l1.75-.96zm-.95-2.42a9.94 9.94 0 01-.22-3.45l-1.99-.21c-.14 1.35-.07 2.74.27 4.14l1.94-.48zm-.09-4.31c.22-1.16.61-2.29 1.15-3.34l-1.79-.9c-.6 1.2-1.07 2.5-1.33 3.86l1.97.38zm1.57-4.13a14.75 14.75 0 012.16-2.84l-1.43-1.4c-.92.95-1.75 2.04-2.45 3.23l1.72 1.01zm2.8-3.46a10.8 10.8 0 012.9-1.92l-.78-1.84c-1.2.51-2.37 1.3-3.45 2.28l1.34 1.48zm3.7-2.21c1.18-.35 2.15-.25 2.86.2l1.08-1.68a5.38 5.38 0 00-4.51-.44l.56 1.92zm3.38.65c.52.57.96 1.5 1.16 2.96l1.99-.27a7.37 7.37 0 00-1.67-4.03l-1.47 1.34zm1.25 3.82c.03.55.04 1.16 0 1.82l2 .1c.04-.73.04-1.41 0-2.04l-2 .12zm-13.27 13.21c.44.49.93 1.01 1.47 1.54l1.39-1.44c-.5-.48-.96-.97-1.38-1.44l-1.48 1.34zm2.27 2.27c1.04.9 2.28 1.78 3.73 2.38l.77-1.85c-1.2-.5-2.25-1.23-3.19-2.04l-1.31 1.5zm4.8 2.76c1.35.4 2.84.55 4.5.34l-.27-1.98a8.73 8.73 0 01-3.66-.28l-.57 1.92zm5.6.14a16.4 16.4 0 004.1-1.55l-.94-1.77c-1.31.7-2.5 1.13-3.6 1.37l.44 1.95zm5.03-2.08c.59-.34 1.19-.73 1.8-1.16l-1.15-1.64c-.57.4-1.13.77-1.66 1.08l1.01 1.72zm1.8-1.16a56.8 56.8 0 011.8-1.22L202 50.64c-.6.4-1.23.82-1.86 1.26l1.15 1.64zm2.72-1.8c.64-.4 1.26-.78 1.87-1.12l-1-1.74c-.62.36-1.27.74-1.93 1.15l1.06 1.7zm2.33-2.27a8.39 8.39 0 01-.3-1.82l-2 .12c.06.8.18 1.55.38 2.25l1.92-.55zm-.3-2.76c.01-.6.08-1.24.2-1.92l-1.97-.35c-.13.77-.21 1.5-.23 2.2l2 .07zm.2-1.92c.13-.71.29-1.4.47-2.05l-1.93-.53c-.2.71-.37 1.45-.5 2.23l1.96.35zm.77-3.05a17.83 17.83 0 011.7-3.75l-1.7-1.04a19.85 19.85 0 00-1.9 4.17l1.9.62zm2.27-4.6a11.9 11.9 0 012.81-2.86l-1.15-1.64c-1.18.83-2.3 1.94-3.3 3.34l1.64 1.15zm3.65-3.39a6.22 6.22 0 013.6-.86l.2-2a8.2 8.2 0 00-4.77 1.11l.97 1.75zm4.45-.68a3.6 3.6 0 012.3 2.4l1.89-.64a5.6 5.6 0 00-3.56-3.66l-.63 1.9zm2.52 3.3c.1.57.13 1.22.08 1.95l2 .14c.05-.87.02-1.68-.1-2.42l-1.98.33zm.08 1.95a6.44 6.44 0 01-.34 1.72l1.89.67a8.4 8.4 0 00.44-2.25l-2-.14zm-.68 2.47a6.58 6.58 0 01-2.59 2.34l1 1.73a8.53 8.53 0 003.32-3.07l-1.73-1zm-3.43 2.8c-1.03.52-2.23 1.04-3.63 1.66l.8 1.83c1.38-.6 2.65-1.16 3.74-1.72l-.91-1.78zm-4.56 2.07c-1.14.51-2.38 1.08-3.7 1.76l.9 1.78c1.29-.65 2.5-1.2 3.62-1.71l-.82-1.83zm-4.62 2.23c-.58.3-1.19.64-1.8.99l.99 1.74c.6-.35 1.18-.66 1.75-.96l-.94-1.77zm-2.27 2.13c.22.77.53 1.48.91 2.12l1.72-1.03a6.78 6.78 0 01-.7-1.64l-1.93.55zm1.57 3.06a9.55 9.55 0 003.62 2.71l.81-1.83a7.55 7.55 0 01-2.87-2.13L206 53.08zm4.66 3.12c1.34.45 2.8.7 4.29.77l.09-2c-1.33-.06-2.6-.28-3.74-.67l-.64 1.9zm5.36.78c1.43-.01 2.87-.19 4.27-.5l-.44-1.95c-1.26.28-2.57.44-3.85.45l.02 2zm5.3-.76c1.43-.4 2.8-.94 4-1.62l-.97-1.74c-1.06.59-2.27 1.08-3.56 1.44l.54 1.92zm4.94-2.19a12 12 0 001.75-1.38l-1.4-1.44c-.42.41-.9.8-1.45 1.16l1.1 1.66zm1.75-1.38c.51-.5.92-1.17 1.26-1.88l-1.8-.86c-.3.62-.59 1.04-.86 1.3l1.4 1.44zm1.67-2.83c.43-1.1.83-2.38 1.24-3.71l-1.9-.6c-.43 1.36-.8 2.57-1.2 3.58l1.86.73zm1.53-4.63c.37-1.17.78-2.37 1.25-3.55l-1.85-.75c-.5 1.25-.93 2.5-1.3 3.7l1.9.6zm1.61-4.4c.5-1.14 1.08-2.23 1.76-3.21l-1.65-1.14a21.39 21.39 0 00-1.94 3.53l1.83.81zm2.29-3.93c.73-.93 1.58-1.74 2.57-2.39l-1.1-1.67c-1.2.78-2.2 1.74-3.04 2.82l1.57 1.24zm3.32-2.83c.95-.5 2.05-.88 3.32-1.07l-.3-1.98c-1.49.22-2.8.67-3.96 1.28l.94 1.77zm4.2-1.18c.57-.04 1.17-.05 1.8-.03l.1-2c-.72-.02-1.4-.01-2.06.04l.16 2zm-16.13 19.66c.38.54.8 1.06 1.25 1.55l1.47-1.36c-.4-.42-.76-.87-1.1-1.35l-1.63 1.16zm1.97 2.27a11 11 0 003.44 2.2l.73-1.85a9 9 0 01-2.81-1.82l-1.36 1.46zm4.43 2.54c1.31.34 2.71.4 4.18.06l-.44-1.95a6.69 6.69 0 01-3.22-.05l-.52 1.94zm5.18-.22c.62-.21 1.24-.49 1.87-.84l-.97-1.74c-.53.29-1.04.52-1.54.69l.64 1.89zm1.87-.84c.7-.39 1.4-.99 2.08-1.7l-1.46-1.38a6.99 6.99 0 01-1.59 1.34l.97 1.74zm2.91-2.66c.92-1.12 1.86-2.5 2.8-4.06l-1.71-1.03c-.91 1.5-1.8 2.8-2.64 3.82l1.55 1.27zm3.42-5.1c.4-.68.79-1.39 1.18-2.12l-1.76-.95c-.38.72-.77 1.4-1.15 2.06l1.73 1zm1.3-2.72c-.09-.61-.16-1.23-.22-1.86l-1.99.2c.06.64.14 1.28.22 1.91l1.98-.25zm-.3-2.8c-.1-1.22-.18-2.47-.22-3.75l-2 .07c.04 1.3.12 2.6.22 3.85l2-.17zm-.25-4.69c-.03-1.24-.03-2.5 0-3.77l-2-.03c-.03 1.3-.03 2.58 0 3.85l2-.05zm.01-4.7c.04-1.26.1-2.52.19-3.77l-2-.14a98.77 98.77 0 00-.19 3.85l2 .05zm.25-4.71c.1-1.26.23-2.52.37-3.75l-1.98-.24a96.35 96.35 0 00-.38 3.83l2 .16zm.49-4.69c.16-1.26.35-2.5.57-3.72l-1.97-.34a85.96 85.96 0 00-.58 3.8l1.98.26zm.73-4.64c.25-1.27.51-2.5.8-3.67l-1.94-.48c-.3 1.21-.57 2.47-.82 3.78l1.97.37zm1.04-4.57c.34-1.27.7-2.46 1.1-3.55l-1.88-.69a45.9 45.9 0 00-1.15 3.72l1.93.52zm1.43-4.41c.5-1.26 1.03-2.36 1.59-3.28l-1.72-1.04a24.06 24.06 0 00-1.73 3.58l1.86.74zm2.07-4.03c.36-.51.72-.95 1.09-1.3l-1.4-1.44c-.47.46-.91 1-1.33 1.6l1.64 1.14zm1.09-1.3c.55-.54 1.05-.97 1.5-1.31l-1.22-1.6c-.52.4-1.08.89-1.67 1.47l1.39 1.43zm2.27-1.85c.82-.49 1.28-.52 1.49-.47.16.04.37.16.59.64l1.82-.81c-.36-.82-.98-1.56-1.98-1.78-.94-.21-1.94.1-2.95.71l1.03 1.71zm2.33.97c.2.99.25 2.34.14 3.9l2 .15c.1-1.65.08-3.21-.19-4.47l-1.95.42zm.05 4.92a45.2 45.2 0 01-.63 4.06l1.97.38c.28-1.41.5-2.86.65-4.23l-2-.2zm-.83 5.07c-.15.68-.31 1.35-.48 2l1.94.5c.17-.67.34-1.37.49-2.08l-1.95-.42zm-.48 2a48.1 48.1 0 01-.56 1.98l1.91.58c.24-.77.44-1.46.59-2.06l-1.94-.5zm-.87 2.98a126 126 0 01-1.34 3.97l1.88.67c.52-1.47.98-2.83 1.37-4.03l-1.91-.6zm-1.7 4.96c-.45 1.25-.94 2.57-1.47 3.93l1.86.73c.54-1.38 1.04-2.71 1.5-3.98l-1.89-.68zm-1.85 4.91c-.5 1.28-1.03 2.58-1.58 3.9l1.84.77c.56-1.33 1.1-2.65 1.6-3.94l-1.86-.73zm-1.99 4.86c-.55 1.3-1.1 2.58-1.68 3.85l1.82.83c.58-1.3 1.15-2.6 1.7-3.9l-1.84-.78zm-2.12 4.8c-.6 1.3-1.2 2.56-1.8 3.79l1.78.89a137.6 137.6 0 001.84-3.84l-1.82-.83zm-2.28 4.72l-.97 1.85 1.76.95 1-1.89-1.79-.91zm-1.08 2.45c.08.63.17 1.24.27 1.84l1.97-.32c-.1-.58-.18-1.17-.26-1.77l-1.98.25zm.43 2.76c.23 1.29.51 2.5.83 3.65l1.93-.55c-.3-1.07-.57-2.23-.8-3.46l-1.96.36zm1.1 4.55c.42 1.3.9 2.5 1.46 3.55l1.77-.95c-.5-.91-.93-1.99-1.32-3.2l-1.9.6zm1.96 4.4c.37.59.78 1.13 1.22 1.6l1.46-1.38c-.34-.36-.67-.79-.99-1.3l-1.7 1.08zm1.22 1.6c.53.56 1.05 1.07 1.56 1.53l1.34-1.48a26 26 0 01-1.44-1.43l-1.46 1.38zm2.4 2.25a11.03 11.03 0 004.02 2.2l.52-1.93a9.06 9.06 0 01-3.28-1.82l-1.26 1.55zm5.21 2.43a8.77 8.77 0 004.6-.87l-.83-1.82a6.8 6.8 0 01-3.56.7l-.2 1.99zm5.6-1.38a27.7 27.7 0 003.62-2.43l-1.22-1.58c-1.23.95-2.34 1.7-3.36 2.26l.96 1.75zm4.46-3.1a99.07 99.07 0 003.23-2.75l-1.32-1.5c-1.13 1-2.18 1.9-3.16 2.7l1.25 1.55zM272 56.1l3.13-2.82-1.34-1.48-3.12 2.8 1.33 1.5zm3.9-3.52l1.57-1.42-1.34-1.48-1.57 1.41 1.34 1.49z" opacity=".8"/>
  <path fill="#22C373" d="M35.41 25.4c-3.25-6.14-9.3-10.28-16.22-10.28C8.83 15.12.43 24.38.43 35.8.43 39.84 1.7 46.25 5.9 55c4.12 8.6 16.2 21.75 29.2 22.17v.01a18.97 18.97 0 00.63 0c13-.43 25.07-13.57 29.2-22.18 4.2-8.75 5.47-15.16 5.47-19.2 0-11.42-8.4-20.68-18.76-20.68-6.93 0-12.98 4.14-16.23 10.29z"/>
  <path fill="#E17715" d="M296.77 22.78c-3.25-6.15-9.3-10.29-16.23-10.29-10.36 0-18.76 9.26-18.76 20.69 0 4.03 1.28 10.44 5.47 19.2 4.13 8.6 16.2 21.75 29.2 22.17a18.88 18.88 0 00.64 0c13-.42 25.06-13.57 29.2-22.18 4.19-8.75 5.46-15.16 5.46-19.2 0-11.42-8.4-20.68-18.76-20.68-6.92 0-12.97 4.14-16.22 10.3z"/>
  <ellipse cx="23.38" cy="40.22" fill="#2D2D2D" opacity=".8" rx="3.48" ry="3.31"/>
  <ellipse cx="284.73" cy="37.59" fill="#2D2D2D" opacity=".8" rx="3.48" ry="3.31"/>
  <ellipse cx="49.07" cy="40.22" fill="#2D2D2D" opacity=".8" rx="3.48" ry="3.31"/>
  <ellipse cx="310.43" cy="37.59" fill="#2D2D2D" opacity=".8" rx="3.48" ry="3.31"/>
  <path fill="#2D2D2D" d="M44.48 57.06c0 4.63-3.95 8.39-8.81 8.39-4.87 0-8.81-3.76-8.81-8.39 0-4.63 3.94-.87 8.8-.87 4.87 0 8.82-3.76 8.82.87zM305.83 54.44c0 4.63-3.94 8.38-8.8 8.38-4.87 0-8.82-3.75-8.82-8.38 0-4.63 3.95-.88 8.81-.88 4.87 0 8.81-3.75 8.81.88z" opacity=".8"/>
</svg>
