<svg xmlns="http://www.w3.org/2000/svg" fill="none" viewBox="0 0 254 86">
  <path fill="#1F1F1F" d="M26.5 3.3v.87-.88zM.46 24.88a.88.88 0 001.65.58l-1.65-.58zm72.06-3.54v.88c.33 0 .63-.18.78-.47l-.78-.4zM55.14 15.6l.45-.75-.45.75zm-2.03-6.8l.22.85-.22-.84zm6.04 23.25l.25-.84-.25.84zm6.23 20.46l-.4-.78.4.78zm-26.39-8.6l-.87-.05.87.05zm21.45 2.28l-.05-.88.05.88zm25.8-15.37l-.32-.81.31.81zM87.51 54l-.2-.85.2.85zm14.24-22.22l-.15.86.15-.86zM87.52 84.14l-.13.86.13-.86zm2.86-21.15l-.46-.74.46.74zm21.25-15.82l.7.54-.7-.54zm5.05-16.35v-.87.87zm-1.42 24.5l-.5.73.5-.72zm16.73-24.5l-.5.72.5-.72zm26.21 8.4a.87.87 0 101.75.09l-1.75-.08zm5.52 12.5l.5.72-.5-.72zm20.26-14.33l.87.06-.87-.06zm-15.71 6.23l.86.15-.86-.15zm22.04 7.31l-.61-.63.6.63zm12.15 3.46l-.42-.77.42.77zm18.99-38.8l.84.22-.84-.21zm-5.01-12.07l-.61-.63.6.63zm-2.41 54.13l-.64.6.64-.6zm26.35-7.59a.88.88 0 00-1.17-1.3l1.17 1.3zM1.28 25.18l.83.29a.32.32 0 01.01-.03A10.58 10.58 0 012.3 25c.12-.31.3-.77.56-1.34l-1.6-.7a36.76 36.76 0 00-.78 1.89v.03l.82.3zm1.98-2.42c.46-1 1.07-2.2 1.83-3.52l-1.51-.88a48.57 48.57 0 00-1.9 3.66l1.58.74zm2.34-4.38a42.78 42.78 0 012.21-3.3l-1.4-1.03a44.49 44.49 0 00-2.3 3.43l1.5.9zm2.8-4.08a34.8 34.8 0 012.6-2.97L9.77 10.1c-1 1.01-1.9 2.07-2.73 3.12l1.38 1.08zm3.31-3.66c.94-.9 1.94-1.74 3.02-2.5L13.7 6.7a29.1 29.1 0 00-3.2 2.66l1.2 1.27zm3.82-3.05c1.08-.7 2.22-1.33 3.43-1.84l-.68-1.61a23.8 23.8 0 00-3.7 1.98l.95 1.47zm4.33-2.2c1.19-.44 2.43-.77 3.75-.98l-.28-1.73c-1.43.23-2.79.6-4.07 1.07l.6 1.64zm4.7-1.1c.64-.08 1.28-.12 1.95-.12l-.03-1.75c-.71 0-1.42.05-2.1.12l.19 1.74zm1.95-.12c.6-.01 1.18 0 1.77.04l.11-1.75a25.5 25.5 0 00-1.9-.04l.02 1.75zm2.66.11c1.18.12 2.35.33 3.5.6l.41-1.7a27.8 27.8 0 00-3.74-.64l-.17 1.74zm4.37.82c1.15.32 2.28.7 3.4 1.14l.64-1.63A34.89 34.89 0 0034 3.41l-.46 1.7zm4.23 1.48c1.1.46 2.2.98 3.28 1.53l.8-1.55a49.2 49.2 0 00-3.4-1.6l-.68 1.62zm4.08 1.95c1.06.57 2.12 1.17 3.17 1.8l.9-1.51a80.16 80.16 0 00-3.25-1.83l-.82 1.54zm3.95 2.26l1.56.96.93-1.49-1.58-.96-.9 1.5zm2.5.95a14 14 0 011.9-1.02l-.7-1.6c-.79.35-1.5.74-2.15 1.15l.95 1.47zm2.92-1.43c.65-.24 1.35-.46 2.11-.66l-.44-1.7c-.81.22-1.57.46-2.28.72l.61 1.64zm2.11-.66c.69-.18 1.36-.34 2-.48l-.38-1.71c-.67.15-1.35.31-2.06.5l.44 1.7zm3.02-.7c1.45-.29 2.79-.49 4.02-.6l-.17-1.74c-1.3.12-2.69.33-4.2.63l.35 1.71zm5.04-.68c1.5-.09 2.83-.04 4 .11l.22-1.73a23.02 23.02 0 00-4.33-.12l.1 1.74zm4.97.27c1.47.3 2.64.78 3.55 1.38l.96-1.47c-1.13-.74-2.5-1.3-4.17-1.62l-.34 1.71zm4.29 1.94a6.5 6.5 0 011.98 3.04L74.3 13a8.25 8.25 0 00-2.5-3.85l-1.15 1.33zm2.2 3.95a9.78 9.78 0 01-.11 3.8l1.7.38c.32-1.43.4-2.98.13-4.49l-1.72.31zm-.36 4.74c-.2.64-.45 1.24-.74 1.78l1.55.81c.33-.63.63-1.33.86-2.07l-1.67-.52zm.03 1.3c-.6 0-1.2-.01-1.79-.06l-.12 1.75c.63.05 1.27.07 1.91.07v-1.75zm-2.68-.14c-1.2-.13-2.37-.35-3.52-.64l-.44 1.7c1.23.3 2.48.54 3.77.68l.2-1.74zm-4.4-.88a31.13 31.13 0 01-3.39-1.22l-.68 1.61c1.18.5 2.38.93 3.59 1.29l.49-1.68zm-4.22-1.59a46.16 46.16 0 01-3.25-1.63l-.84 1.53c1.12.62 2.24 1.19 3.37 1.7l.72-1.6zm-4.05-2.08l-1.58-.93-.9 1.5 1.61.95.87-1.52zm-1.58-.93l-1.46-.9-.92 1.48 1.48.91.9-1.5zm-2.19-1.36c-.97-.6-1.94-1.22-2.91-1.84l-.94 1.48 2.92 1.84.93-1.48zm-3.65-2.3l-1.46-.93-.93 1.49 1.46.91.93-1.48zm-2.4-.92c-.65.42-1.23.87-1.74 1.35l1.2 1.27c.43-.4.92-.78 1.49-1.15l-.95-1.47zm-2.5 2.16a8.1 8.1 0 00-1.89 4.09l1.73.25a6.36 6.36 0 011.5-3.2l-1.35-1.14zm-1.97 5.23c0 1.44.36 2.9 1.03 4.3l1.58-.75a8.17 8.17 0 01-.86-3.54l-1.75-.01zm1.54 5.27c.68 1.17 1.58 2.3 2.66 3.37l1.23-1.24c-.99-.98-1.78-2-2.38-3.01l-1.5.88zm3.43 4.1c1 .9 2.14 1.74 3.4 2.51l.91-1.48a22.28 22.28 0 01-3.14-2.33l-1.17 1.3zm4.3 3.05c1.17.66 2.44 1.27 3.79 1.8l.64-1.63a28.46 28.46 0 01-3.57-1.7l-.86 1.53zm4.77 2.17c.64.23 1.3.45 1.99.64l.49-1.68c-.65-.19-1.28-.39-1.9-.6l-.58 1.64zm1.99.64c.63.19 1.28.43 1.93.74l.74-1.59c-.73-.34-1.46-.62-2.18-.83l-.5 1.68zm2.86 1.2c1.19.66 2.36 1.49 3.42 2.43l1.16-1.3a20.57 20.57 0 00-3.74-2.66l-.84 1.54zm4.19 3.15a16.25 16.25 0 012.57 3.27l1.51-.88A17.99 17.99 0 0067.2 36l-1.23 1.24zM69 41.42c.3.63.54 1.26.7 1.9l1.7-.43c-.2-.76-.47-1.5-.82-2.23l-1.58.76zm1.13.91c-.6.34-1.22.65-1.85.94l.73 1.59c.66-.31 1.32-.64 1.96-.99l-.84-1.53zm-2.8 1.35a22.8 22.8 0 01-3.92 1.23l.37 1.7c1.46-.3 2.87-.76 4.22-1.31l-.67-1.62zm-4.92 1.41c-.67.11-1.34.19-2.03.22l.1 1.75c.74-.04 1.48-.12 2.2-.24l-.27-1.73zm-2.03.22c-.64.04-1.27.04-1.9.01l-.06 1.75c.67.03 1.35.03 2.05-.01l-.09-1.75zm-2.84-.04c-1.3-.12-2.55-.34-3.73-.65l-.44 1.7c1.27.32 2.61.57 4.02.69l.15-1.74zm-4.65-.9a33.63 33.63 0 01-3.61-1.31l-.69 1.61c1.17.5 2.44.98 3.8 1.38l.5-1.68zm-4.5-1.7c-1.34-.6-2.47-1.16-3.57-1.66l-.73 1.59c1 .46 2.26 1.08 3.58 1.67l.72-1.6zm-4.5-2.08a9.18 9.18 0 00-2.45-.74 2.63 2.63 0 00-2.22.66l1.22 1.26c.14-.13.35-.23.8-.18.5.06 1.14.26 1.97.62l.68-1.62zm-5.39 1.08c-.22.6-.34 1.33-.4 2.2l1.75.1c.05-.78.15-1.32.3-1.69l-1.65-.61zm-.4 2.2c-.03.7 0 1.39.11 2.07l1.73-.27a7.96 7.96 0 01-.09-1.7l-1.74-.1zm.33 3.09c.35 1.31.97 2.55 1.82 3.67l1.4-1.05c-.72-.96-1.24-2-1.53-3.08l-1.7.46zm2.47 4.46a13.7 13.7 0 003.12 2.56l.9-1.5a11.95 11.95 0 01-2.72-2.23l-1.3 1.17zm4 3.05a17.1 17.1 0 003.73 1.4l.43-1.7c-1.22-.3-2.35-.73-3.35-1.25l-.81 1.55zm4.7 1.62c1.25.24 2.57.37 3.94.36V54.7c-1.27 0-2.47-.11-3.6-.33l-.34 1.72zm4.93.34a24.3 24.3 0 003.9-.5l-.36-1.71c-1.25.26-2.46.4-3.62.46l.08 1.75zm4.85-.72c1.22-.3 2.46-.7 3.72-1.21l-.65-1.63c-1.19.48-2.36.86-3.5 1.14l.43 1.7zm4.62-1.59c.58-.25 1.17-.53 1.77-.83l-.8-1.56c-.56.29-1.12.55-1.67.8l.7 1.6zm1.77-.83c.79-.4 1.5-.83 2.12-1.3l-1.04-1.4c-.54.4-1.16.78-1.88 1.14l.8 1.56zm3.1-2.1a8.33 8.33 0 002.63-4.42l-1.7-.36a6.6 6.6 0 01-2.11 3.5l1.18 1.28zm2.8-5.72a9.04 9.04 0 00-.27-2.58l-1.7.42c.17.7.25 1.4.22 2.08l1.75.08zm-.7-1.6c.6-.33 1.19-.67 1.76-1.03l-.92-1.49c-.55.34-1.11.67-1.68.98l.84 1.54zm2.62-1.59a47.47 47.47 0 003.3-2.39l-1.1-1.37c-1 .8-2.05 1.57-3.16 2.3l.96 1.46zm4.08-3.02c1.1-.9 2.12-1.8 3.06-2.65l-1.18-1.3c-.92.84-1.92 1.72-2.98 2.6l1.1 1.35zm3.8-3.33c1.12-1.03 2.09-1.95 2.92-2.7l-1.16-1.3c-.85.75-1.85 1.7-2.95 2.71l1.19 1.3zm3.66-3.33a6 6 0 011.4-.96l-.62-1.63c-.59.22-1.24.7-1.9 1.25l1.12 1.34zm1.4-.96h-.02l-.07.02a.52.52 0 01-.22-.05c-.17-.08-.22-.2-.2-.18 0 .02.03.1.05.28.01.16.02.38.01.64l1.75.05c.02-.59-.01-1.2-.21-1.66-.1-.25-.3-.55-.67-.72a1.32 1.32 0 00-1.04-.01l.63 1.63zm-.51 1.68c-.1 1.08-.32 2.44-.58 3.98l1.72.29c.26-1.53.49-2.96.6-4.1l-1.74-.17zm-.75 4.98c-.23 1.3-.47 2.67-.69 4.05l1.73.27.68-4.02-1.72-.3zm-.84 5.07a58.85 58.85 0 00-.5 4.12l1.75.13c.1-1.24.27-2.6.48-4l-1.73-.25zm-.55 5.17c-.08 1.67 0 3.24.43 4.39l1.64-.6c-.3-.82-.4-2.09-.33-3.71l-1.74-.08zm1.1 5.55c.68.77 1.64 1 2.73.76l-.4-1.7c-.58.13-.84-.02-1.02-.22l-1.31 1.16zm2.73.76c.8-.19 1.55-.57 2.25-1.07l-1.02-1.42c-.57.4-1.1.66-1.63.78l.4 1.7zm3.16-1.82a18.81 18.81 0 002.87-3.51l-1.46-.96a17.1 17.1 0 01-2.6 3.18l1.2 1.29zm3.47-4.45a50.65 50.65 0 002.1-3.86l-1.56-.78a48.94 48.94 0 01-2.04 3.73l1.5.91zm2.59-4.85c.64-1.34 1.24-2.7 1.8-3.97l-1.61-.7c-.55 1.27-1.14 2.6-1.77 3.92l1.58.75zm2.22-4.97c.65-1.5 1.22-2.87 1.71-3.96l-1.6-.72c-.5 1.12-1.08 2.5-1.71 4l1.6.68zm2.16-4.91c.26-.54.47-.93.64-1.16.08-.12.12-.15.12-.15s-.05.04-.12.06a.66.66 0 01-.35.03l.3-1.72c-.43-.08-.77.14-.93.27-.18.14-.33.33-.45.5-.25.35-.52.84-.79 1.4l1.58.77zm.29-1.22a.78.78 0 01-.56-.43l-.02-.04v.06l.02.17c.02.3 0 .78-.05 1.43l1.74.14c.06-.67.08-1.24.06-1.65 0-.2-.03-.42-.08-.61-.03-.1-.08-.24-.17-.38a.97.97 0 00-.63-.41l-.31 1.72zm-.72 2.24c-.12 1.16-.31 2.6-.57 4.26l1.73.27c.26-1.68.46-3.15.59-4.34l-1.75-.19zm-.74 5.33a225.3 225.3 0 01-.73 4.25l1.73.31a227 227 0 00.73-4.29l-1.73-.27zm-.92 5.32c-.25 1.36-.52 2.78-.81 4.24l1.71.35c.3-1.47.57-2.9.82-4.28l-1.72-.31zm-1.03 5.3c-.28 1.39-.58 2.8-.89 4.23l1.71.37.9-4.25-1.72-.35zm-1.12 5.29l-.47 2.1 1.7.4.48-2.12-1.7-.38zm-.47 2.1l-.43 1.84 1.7.4c.15-.61.3-1.23.43-1.84l-1.7-.4zm-.65 2.75c-.29 1.23-.6 2.44-.9 3.64l1.7.44c.3-1.21.61-2.44.9-3.67l-1.7-.41zm-1.13 4.55c-.33 1.23-.65 2.44-.99 3.61l1.69.48.99-3.65-1.7-.44zm-1.24 4.51c-.36 1.25-.73 2.45-1.1 3.58l1.67.54c.37-1.15.74-2.37 1.1-3.63l-1.67-.49zM92.2 74.5a65.55 65.55 0 01-1.27 3.49l1.63.65c.43-1.1.87-2.3 1.3-3.59l-1.66-.55zm-1.62 4.34a20.11 20.11 0 01-1.64 3.2l1.46.98c.6-.9 1.2-2.1 1.8-3.5l-1.62-.68zm-2.14 3.87c-.5.57-.76.58-.8.57L87.4 85c.97.14 1.78-.48 2.37-1.15l-1.32-1.15zm-.8.57c-.6-.08-1.2-.23-1.8-.42l-.55 1.66c.69.23 1.4.4 2.1.5l.25-1.74zM85 82.52a8.76 8.76 0 01-2.96-2.08l-1.3 1.18a10.5 10.5 0 003.56 2.5l.7-1.6zm-3.52-2.77a5.82 5.82 0 01-1.08-3.26l-1.75.03c.03 1.6.56 3.03 1.4 4.23l1.43-1zm-1.03-4.14c.12-1.03.5-2.17 1.23-3.41l-1.51-.89a10.63 10.63 0 00-1.46 4.1l1.74.2zm1.73-4.2c.63-.93 1.45-1.9 2.48-2.91l-1.22-1.25c-1.1 1.08-2 2.14-2.7 3.17l1.44.98zm3.19-3.58c.88-.79 1.88-1.6 3.04-2.44l-1.03-1.42c-1.2.87-2.26 1.73-3.19 2.57l1.18 1.3zm3.85-3.01c.52-.36 1.07-.73 1.64-1.1l-.93-1.47c-.6.38-1.17.75-1.7 1.13l.99 1.44zm1.64-1.1l1.43-.9-.95-1.48-1.41.9.93 1.49zM93 62.37l2.83-1.83-.95-1.46-2.83 1.82.95 1.47zm3.54-2.29a350 350 0 001.41-.93l-.96-1.46-1.4.93.95 1.46zm1.41-.93l1.52-1.01-.97-1.45-1.51 1 .96 1.46zm2.28-1.52l3-2.06-1-1.44-2.98 2.05.98 1.45zm3.75-2.59a98.7 98.7 0 002.95-2.17l-1.07-1.4c-.81.63-1.77 1.34-2.9 2.14l1.02 1.43zm3.68-2.74a34.38 34.38 0 002.8-2.45l-1.22-1.24c-.63.62-1.46 1.36-2.67 2.32l1.09 1.37zm3.47-3.13c.5-.55.87-1.02 1.2-1.45l-1.38-1.07c-.33.43-.66.85-1.1 1.34l1.28 1.18zm1.2-1.45c.3-.37.61-.96.93-1.63l-1.58-.75c-.31.66-.56 1.1-.73 1.3l1.39 1.08zm1.3-2.42c.4-.91.85-2.01 1.29-3.18l-1.64-.61c-.43 1.14-.86 2.2-1.25 3.08l1.6.71zm1.58-3.98c.2-.53.38-1.07.57-1.6l-1.66-.57c-.18.53-.36 1.06-.55 1.57l1.64.6zm.57-1.6l.57-1.73-1.67-.54c-.17.56-.36 1.13-.56 1.7l1.66.56zm.84-2.6c.4-1.3.73-2.53.95-3.56l-1.71-.36c-.2.96-.53 2.13-.91 3.4l1.67.52zm1.12-4.49c.09-.53.13-1.03.1-1.44-.02-.19-.07-.45-.22-.7-.17-.28-.5-.53-.94-.53v1.75a.68.68 0 01-.55-.3c-.06-.1-.05-.14-.04-.04.02.17 0 .5-.08 1l1.73.26zm-1.06-2.67c-.43 0-.7.26-.84.4-.14.17-.24.36-.31.52-.16.35-.3.8-.42 1.3l1.7.42a6 6 0 01.3-1c.05-.1.07-.1.05-.09 0 .01-.16.2-.48.2v-1.75zm-1.77 3.13c-.2 1-.38 2.23-.54 3.58l1.73.21c.17-1.33.35-2.51.53-3.45l-1.72-.34zm-.65 4.47l-.18 1.79 1.74.16.18-1.75-1.74-.2zm-.18 1.79c-.07.7-.13 1.42-.18 2.15l1.74.13.18-2.12-1.74-.16zm-.26 3.22c-.1 1.46-.17 2.92-.2 4.32l1.74.05c.04-1.37.11-2.81.2-4.25l-1.74-.12zm-.23 5.4c-.03 1.62 0 3.12.08 4.36l1.75-.12a50.7 50.7 0 01-.08-4.21l-1.75-.03zm.18 5.47c.07.56.16 1.07.29 1.48.06.2.14.4.24.6.1.17.24.38.47.54l1-1.44c.08.06.1.1.06.05a7.27 7.27 0 01-.32-1.44l-1.74.21zm1 2.62c.66.46 1.34.11 1.68-.14.37-.28.73-.72 1.07-1.2l-1.42-1c-.32.44-.55.69-.7.8-.07.06-.07.03 0 .02a.5.5 0 01.37.08l-1 1.44zm3.35-2.25c.61-.99 1.3-2.25 2.02-3.67l-1.56-.8a53.97 53.97 0 01-1.95 3.55l1.5.92zm2.49-4.59l1.83-3.7-1.57-.77c-.63 1.29-1.24 2.53-1.83 3.69l1.57.78zm2.28-4.61l1.84-3.67-1.55-.8a276.6 276.6 0 00-1.86 3.7l1.57.77zm2.32-4.58a84.63 84.63 0 011.96-3.57l-1.51-.89a86.86 86.86 0 00-2 3.65l1.55.8zm2.48-4.44a20.06 20.06 0 012.3-3.18l-1.26-1.21a21.7 21.7 0 00-2.53 3.47l1.49.92zm2.95-3.78c.3-.22.5-.3.62-.32.1-.01.16 0 .23.06l1.02-1.43c-.46-.33-1-.44-1.53-.35-.51.08-.98.33-1.4.65l1.06 1.4zm.85-.26c.08.05.27.29.28 1.13l1.75-.03c-.02-.91-.2-1.95-1-2.53l-1.03 1.43zm.24 2.03c-.1 1.06-.37 2.37-.71 3.85l1.7.4c.35-1.5.64-2.9.75-4.08l-1.74-.17zm-.94 4.82c-.3 1.24-.65 2.59-.96 3.91l1.7.4.96-3.9-1.7-.41zm-1.2 4.9c-.3 1.37-.58 2.74-.75 4.04l1.73.23c.17-1.22.43-2.54.73-3.88l-1.7-.39zm-.87 5.07c-.16 1.56-.14 3.07.23 4.32l1.68-.5c-.28-.93-.31-2.17-.17-3.65l-1.74-.17zm.69 5.43c.38.68.92 1.24 1.65 1.6a5.2 5.2 0 002.56.48l-.07-1.74c-.75.02-1.3-.1-1.7-.3-.4-.2-.69-.5-.92-.9l-1.52.86zm5.3 1.97c1.17-.18 2.5-.59 4.06-1.24l-.68-1.61c-1.47.61-2.67.97-3.65 1.12l.28 1.73zm4.99-1.64c1.1-.5 2.33-1.13 3.67-1.88l-.86-1.53c-1.3.73-2.48 1.33-3.54 1.82l.72 1.59zm4.52-2.37L146 50.7l-.91-1.5c-.6.38-1.19.72-1.75 1.05l.88 1.51zm2.1-2.23c-.3-.54-.54-1.07-.73-1.61l-1.65.57c.22.63.5 1.26.84 1.88l1.53-.84zm-.97-2.45a10.04 10.04 0 01-.23-3.5l-1.74-.18a11.8 11.8 0 00.27 4.1l1.7-.42zm-.1-4.37c.22-1.17.63-2.3 1.16-3.37l-1.56-.79c-.6 1.2-1.06 2.5-1.32 3.84l1.72.32zm1.6-4.16a14.91 14.91 0 012.17-2.87l-1.25-1.22c-.91.94-1.75 2.02-2.44 3.2l1.51.89zm2.82-3.5c.96-.86 1.97-1.52 2.94-1.94l-.7-1.6a12.7 12.7 0 00-3.41 2.25l1.17 1.3zm3.73-2.23c1.21-.36 2.22-.26 2.97.22l.95-1.47a5.26 5.26 0 00-4.41-.43l.5 1.68zm3.52.69c.54.59 1 1.55 1.2 3.02l1.73-.24a7.23 7.23 0 00-1.63-3.96l-1.3 1.18zm1.28 3.9c.04.55.04 1.16.01 1.83l1.75.08c.03-.73.03-1.4-.01-2.03l-1.75.11zm-13.3 13.13c.44.48.92 1 1.46 1.53l1.22-1.26c-.5-.49-.96-.98-1.39-1.45l-1.3 1.18zm2.26 2.25c1.04.9 2.26 1.77 3.7 2.36l.67-1.61a11.9 11.9 0 01-3.23-2.07l-1.14 1.32zm4.75 2.74c1.33.4 2.8.55 4.44.33l-.22-1.73a8.86 8.86 0 01-3.72-.28l-.5 1.68zm5.54.14a16.3 16.3 0 004.06-1.54l-.82-1.55c-1.31.7-2.52 1.14-3.62 1.38l.38 1.71zm5-2.06c.58-.35 1.17-.73 1.78-1.16l-1-1.43c-.58.4-1.14.76-1.68 1.08l.9 1.5zm1.78-1.16c.62-.44 1.22-.85 1.81-1.23l-.95-1.47c-.61.4-1.23.82-1.87 1.27l1.01 1.43zm2.73-1.82c.64-.4 1.26-.77 1.87-1.11l-.86-1.52c-.63.36-1.28.74-1.94 1.15l.93 1.48zm2.28-2.11a8.52 8.52 0 01-.3-1.85l-1.75.1c.05.8.17 1.53.37 2.23l1.68-.48zm-.31-2.8c.02-.61.09-1.25.2-1.94l-1.72-.3c-.13.75-.21 1.48-.23 2.17l1.75.06zm.2-1.94c.14-.72.3-1.4.47-2.06l-1.69-.46c-.19.7-.36 1.44-.5 2.21l1.73.31zm.77-3.07c.48-1.44 1.06-2.7 1.73-3.78l-1.5-.91a19.65 19.65 0 00-1.89 4.15l1.66.54zm2.3-4.64c.87-1.23 1.85-2.19 2.84-2.89l-1.01-1.43a13.75 13.75 0 00-3.26 3.3l1.42 1.02zm3.68-3.42c1.31-.72 2.6-1 3.68-.88l.18-1.74a8.08 8.08 0 00-4.7 1.1l.84 1.52zm4.56-.69a3.73 3.73 0 012.37 2.48l1.66-.56a5.48 5.48 0 00-3.48-3.58l-.55 1.66zm2.6 3.4c.1.58.13 1.24.08 1.98l1.74.12c.06-.86.03-1.66-.1-2.4l-1.72.3zm.08 1.98a6.55 6.55 0 01-.34 1.75l1.65.58c.23-.66.38-1.4.43-2.21l-1.74-.12zm-.7 2.52a6.7 6.7 0 01-2.63 2.38l.88 1.52a8.4 8.4 0 003.27-3.02l-1.52-.88zm-3.48 2.85c-1.03.52-2.23 1.05-3.63 1.66l.7 1.6c1.38-.6 2.64-1.15 3.73-1.7l-.8-1.56zm-4.56 2.08c-1.14.5-2.38 1.08-3.7 1.75l.8 1.56c1.28-.66 2.49-1.21 3.61-1.72l-.71-1.6zM169.76 47c-.59.3-1.19.63-1.8.99l.86 1.52c.6-.35 1.19-.66 1.75-.96l-.81-1.55zm-2.21 1.99c.21.76.52 1.45.9 2.08l1.5-.9a6.9 6.9 0 01-.72-1.66l-1.68.48zM169.1 52a9.42 9.42 0 003.57 2.67l.7-1.6a7.68 7.68 0 01-2.9-2.17L169.1 52zm4.6 3.07c1.33.45 2.78.7 4.25.76l.08-1.75a13.75 13.75 0 01-3.77-.67l-.56 1.66zm5.32.78c1.42-.02 2.85-.19 4.23-.5l-.38-1.7a18.9 18.9 0 01-3.87.45l.02 1.75zm5.27-.76c1.42-.4 2.77-.93 3.97-1.6l-.85-1.53a16.5 16.5 0 01-3.59 1.45l.47 1.68zm4.9-2.17c.63-.42 1.21-.87 1.72-1.37l-1.21-1.26c-.43.42-.92.8-1.47 1.17l.96 1.46zm1.72-1.37c.5-.49.9-1.14 1.24-1.84l-1.58-.76a4.7 4.7 0 01-.87 1.34l1.22 1.26zm1.65-2.79c.43-1.08.82-2.37 1.24-3.7l-1.67-.52c-.43 1.35-.8 2.57-1.2 3.58l1.63.64zm1.53-4.61c.37-1.18.78-2.39 1.25-3.57l-1.62-.65c-.5 1.24-.92 2.5-1.3 3.68l1.67.54zm1.62-4.43c.5-1.14 1.08-2.23 1.76-3.22l-1.44-1a21.3 21.3 0 00-1.93 3.51l1.6.71zm2.3-3.95c.74-.94 1.6-1.76 2.6-2.41l-.96-1.47a12.7 12.7 0 00-3.02 2.8l1.38 1.08zm3.36-2.86c.97-.52 2.07-.9 3.35-1.09l-.26-1.73c-1.47.23-2.77.66-3.91 1.27l.82 1.55zm4.25-1.19c.57-.05 1.18-.06 1.82-.03l.07-1.75c-.7-.03-1.38-.02-2.03.04l.14 1.74zm-16.03 19.7c.39.55.8 1.06 1.25 1.55l1.28-1.2c-.39-.42-.76-.88-1.1-1.36l-1.43 1.02zm1.96 2.25c1 .93 2.13 1.7 3.4 2.2l.64-1.64a9.13 9.13 0 01-2.85-1.84l-1.2 1.28zm4.38 2.52c1.29.34 2.67.39 4.12.06l-.38-1.7a6.82 6.82 0 01-3.29-.06l-.45 1.7zm5.1-.22c.62-.2 1.24-.48 1.86-.83l-.85-1.53c-.54.3-1.06.53-1.56.7l.56 1.66zm1.86-.83a8.8 8.8 0 002.05-1.68l-1.28-1.2a7.1 7.1 0 01-1.62 1.35l.85 1.53zm2.87-2.63c.91-1.12 1.85-2.5 2.79-4.04l-1.5-.9a34.4 34.4 0 01-2.64 3.83l1.35 1.1zm3.4-5.09c.4-.67.8-1.38 1.19-2.11l-1.54-.83c-.39.72-.77 1.4-1.16 2.07l1.52.87zm1.28-2.64a60.2 60.2 0 01-.2-1.86l-1.75.17.22 1.92 1.73-.23zm-.3-2.8a75.8 75.8 0 01-.21-3.75l-1.75.06c.04 1.3.12 2.59.22 3.84l1.75-.15zm-.24-4.7c-.03-1.24-.03-2.5 0-3.77l-1.76-.03c-.02 1.3-.02 2.58.01 3.84l1.75-.04zm.01-4.71c.04-1.26.1-2.52.19-3.77l-1.75-.12a96.59 96.59 0 00-.18 3.84l1.75.05zm.26-4.71c.1-1.26.22-2.52.37-3.76l-1.74-.2a94.25 94.25 0 00-.38 3.82l1.75.14zm.48-4.7c.17-1.26.36-2.5.57-3.72l-1.72-.3a85.69 85.69 0 00-.58 3.8l1.73.23zm.74-4.64c.24-1.28.5-2.5.8-3.68l-1.7-.42c-.3 1.2-.57 2.47-.82 3.77l1.72.33zm1.03-4.58a43.6 43.6 0 011.12-3.57l-1.65-.6c-.42 1.16-.8 2.4-1.16 3.71l1.7.46zm1.44-4.43c.5-1.26 1.03-2.37 1.6-3.3l-1.5-.9a23.98 23.98 0 00-1.73 3.56l1.63.64zm2.08-4.05c.36-.52.73-.96 1.1-1.33l-1.21-1.25c-.47.45-.91.98-1.33 1.58l1.44 1zm1.1-1.33c.56-.53 1.06-.97 1.52-1.31l-1.06-1.4c-.52.4-1.08.88-1.67 1.46l1.22 1.25zm2.3-1.85c.84-.5 1.33-.55 1.58-.5.21.06.46.22.68.72l1.6-.71c-.36-.8-.96-1.5-1.9-1.7-.9-.21-1.86.09-2.86.69l.9 1.5zm2.51 1.05c.22 1 .26 2.36.15 3.93l1.74.13c.12-1.64.1-3.2-.17-4.43l-1.72.37zm.06 4.95c-.14 1.31-.35 2.7-.63 4.07l1.72.34c.28-1.41.5-2.85.65-4.23l-1.74-.18zm-.84 5.08c-.14.69-.3 1.36-.47 2.01l1.7.43c.17-.66.33-1.36.48-2.07l-1.7-.37zm-.47 2.01c-.15.57-.34 1.24-.56 1.99l1.67.5c.23-.76.43-1.46.58-2.06l-1.7-.43zm-.88 2.99c-.37 1.18-.82 2.52-1.34 3.97l1.65.59c.52-1.47.98-2.83 1.36-4.03l-1.66-.53zm-1.7 4.96c-.45 1.25-.94 2.58-1.47 3.94l1.63.63c.54-1.37 1.04-2.7 1.5-3.97l-1.65-.6zm-1.85 4.92c-.5 1.27-1.03 2.58-1.58 3.9l1.62.67c.55-1.33 1.08-2.64 1.59-3.93l-1.63-.64zm-1.99 4.86c-.54 1.29-1.1 2.58-1.68 3.85l1.6.72 1.7-3.88-1.62-.69zm-2.12 4.8c-.6 1.3-1.2 2.57-1.81 3.8l1.57.77c.62-1.24 1.23-2.52 1.83-3.83l-1.59-.73zm-2.28 4.73l-.97 1.85 1.54.83a95 95 0 00.99-1.89l-1.56-.8zm-1.07 2.38c.08.62.17 1.23.27 1.83l1.73-.28c-.1-.58-.19-1.17-.27-1.78l-1.73.23zm.43 2.75c.23 1.28.5 2.5.83 3.64l1.69-.48c-.31-1.08-.58-2.24-.8-3.48l-1.72.32zm1.1 4.54c.41 1.3.9 2.48 1.45 3.52l1.54-.83c-.49-.92-.93-2-1.32-3.22l-1.67.53zm1.94 4.36c.37.58.77 1.12 1.21 1.58l1.27-1.2c-.34-.37-.68-.8-1-1.31l-1.48.93zm1.21 1.58c.53.56 1.04 1.07 1.55 1.53l1.17-1.3c-.46-.42-.95-.9-1.45-1.43l-1.27 1.2zm2.38 2.24a10.9 10.9 0 003.98 2.18l.46-1.69a9.19 9.19 0 01-3.34-1.85l-1.1 1.36zm5.15 2.4c1.51.16 3-.16 4.53-.86l-.72-1.6c-1.33.61-2.5.84-3.63.72l-.18 1.74zm5.53-1.36a27.67 27.67 0 003.6-2.42l-1.07-1.39A25.87 25.87 0 01225.6 60l.84 1.53zm4.44-3.09a98.65 98.65 0 003.23-2.74l-1.16-1.31a96.4 96.4 0 01-3.17 2.7l1.1 1.35zm4.02-3.44l3.13-2.82-1.17-1.3-3.13 2.81 1.17 1.3zm3.9-3.53l1.57-1.41-1.17-1.3-1.57 1.42 1.18 1.3z"/>
  <path fill="#FBA651" d="M242.93 42.46a5.75 5.75 0 00-5.03-3.2c-3.22 0-5.83 2.88-5.83 6.43 0 1.25.4 3.24 1.7 5.96 1.28 2.67 5.03 6.75 9.06 6.88a6.53 6.53 0 00.2 0c4.04-.13 7.78-4.21 9.07-6.88 1.3-2.72 1.7-4.71 1.7-5.96 0-3.55-2.61-6.42-5.83-6.42a5.75 5.75 0 00-5.04 3.19z"/>
  <ellipse cx="239.2" cy="47.06" fill="#2D2D2D" rx="1.08" ry="1.03"/>
  <ellipse cx="247.17" cy="47.06" fill="#2D2D2D" rx="1.08" ry="1.03"/>
  <path fill="#2D2D2D" d="M245.75 52.29c0 1.43-1.23 2.6-2.74 2.6a2.67 2.67 0 01-2.73-2.6c0-1.44 1.22-.28 2.73-.28s2.74-1.16 2.74.28z"/>
</svg>
