<svg xmlns="http://www.w3.org/2000/svg" fill="none" viewBox="0 0 292 276">
  <path fill="#22C373" d="M106.06 176.61c5.08-10.57 4.62-22.91-2.33-32.3-10.39-14.03-31.35-16.12-46.83-4.67-5.46 4.05-12.87 12.2-20.52 26.66-7.52 14.22-13.22 43.75-.76 61.77l-.02.02a41.13 41.13 0 00.64.86h.02c13.6 17.18 43.5 20.35 59.3 17.31 16.07-3.09 26.03-7.79 31.5-11.83 15.47-11.46 19.6-32.12 9.2-46.16-6.94-9.38-18.6-13.43-30.2-11.66z"/>
  <path fill="#2D2D2D" d="M45.59 204.12c5.8-5.22 14.95-4.51 20.44 1.59 5.48 6.1 5.22 15.27-.58 20.49-5.8 5.22-5.55-3.95-11.03-10.05-5.49-6.1-14.64-6.81-8.83-12.03z"/>
  <path fill="#FBA651" d="M202.4 39.93c-9.15-7.35-21.27-9.7-31.98-5.08-16.03 6.93-22.84 26.87-15.2 44.54 2.7 6.24 8.95 15.31 21.29 26.05 12.14 10.56 39.6 22.82 59.99 14.79v.02a30.77 30.77 0 00.99-.45c19.82-9.34 29.71-37.74 30.35-53.82.64-16.34-1.67-27.1-4.37-33.35-7.63-17.67-26.82-26.39-42.85-19.46-10.71 4.63-17.3 15.07-18.22 26.76z"/>
  <ellipse cx="233.43" cy="53.71" fill="#2D2D2D" rx="5.86" ry="5.58" transform="rotate(-23.36 233.43 53.7)"/>
  <ellipse cx="227.53" cy="94.33" fill="#2D2D2D" rx="5.86" ry="9.3" transform="rotate(-23.36 227.53 94.33)"/>
  <ellipse cx="190.63" cy="72.02" fill="#2D2D2D" rx="5.86" ry="5.58" transform="rotate(-23.36 190.63 72.02)"/>
  <path fill="#2D2D2D" d="M106.36 207.04l7.84-.89 3.58 4.33-12.18 1.21a62.7 62.7 0 01-3.92 12.46l-3.66-4.43c.66-1.6 1.2-3.09 1.6-4.48.4-1.38.75-2.66 1.03-3.82a53.36 53.36 0 00-8.59 1.1l-3.58-4.33a41.1 41.1 0 012.98-.48 96.92 96.92 0 016.79-.6l3.36-.1 3.17-12.24 3.7 4.46-2.12 7.81zM79.27 169.45l7.84-.89 3.58 4.33-12.18 1.21a62.49 62.49 0 01-3.92 12.46l-3.66-4.43c.66-1.6 1.2-3.09 1.6-4.47.4-1.4.75-2.67 1.03-3.83a52.91 52.91 0 00-8.59 1.1l-3.58-4.32c.93-.2 1.93-.35 2.98-.49a96.92 96.92 0 016.79-.6l3.36-.1 3.16-12.24 3.7 4.46-2.1 7.81z"/>
</svg>

