<svg xmlns="http://www.w3.org/2000/svg" fill="none" viewBox="0 0 22 20">
  <path fill="#22C373" d="M10.89 3.23A5.75 5.75 0 005.85.03C2.64.03.03 2.91.03 6.45c0 1.25.4 3.24 1.7 5.96 1.28 2.67 5.02 6.75 9.06 6.88a5.48 5.48 0 00.2 0c4.03-.13 7.78-4.2 9.06-6.88 1.3-2.72 1.7-4.7 1.7-5.96 0-3.54-2.6-6.42-5.82-6.42a5.75 5.75 0 00-5.04 3.2z"/>
  <ellipse cx="7.15" cy="7.82" fill="#2D2D2D" rx="1.08" ry="1.03"/>
  <ellipse cx="15.13" cy="7.82" fill="#2D2D2D" rx="1.08" ry="1.03"/>
  <path fill="#2D2D2D" d="M13.7 13.05c0 1.44-1.22 2.6-2.73 2.6a2.67 2.67 0 01-2.74-2.6c0-1.44 1.23-.27 2.74-.27 1.5 0 2.73-1.17 2.73.27z"/>
</svg>
