<svg xmlns="http://www.w3.org/2000/svg" fill="none" viewBox="0 0 284 260">
  <path fill="#1F1F1F" d="M43.24 4.39l.02 2-.02-2zM18.03 26.27l1.83.8.05-.13-1.88-.67zm71.24-3.82v2a2 2 0 001.76-1.07l-1.76-.93zm-17.39-5.76l1.04-1.7-1.04 1.7zM69.85 9.9l.5 1.94-.5-1.94zm6.04 23.25l.56-1.92-.56 1.92zm6.23 20.46l-.9-1.79.9 1.79zm-4.94-6.33l-.1-2 .1 2zm25.8-15.36l-.72-1.87.71 1.87zm15.52.95l-.35 1.97.35-1.97zm-14.24 52.36l-.28 1.98.28-1.98zm2.86-21.15l-1.07-1.68 1.08 1.68zm21.25-15.81l1.59 1.22-1.59-1.22zm5.04-16.35v-2 2zM132 56.42l-1.15 1.64 1.15-1.63zm41.82-16.15a2 2 0 104 .19l-4-.19zm6.64 12.55l1.15 1.63-1.15-1.63zm20.26-14.33l2 .13-2-.13zm-15.71 6.22l1.97.36-1.97-.36zm22.04 7.32l-1.4-1.44 1.4 1.44zm12.15 3.46l-.97-1.75.97 1.75zm18.99-38.8l1.94.5-1.94-.5zm-5.01-12.08l-1.4-1.43 1.4 1.43zm-2.41 54.14l-1.46 1.37 1.46-1.37zM43.2 2.39c-9.7.12-16.5 6.15-20.77 11.82a47.95 47.95 0 00-6.27 11.32l-.02.05v.02c-.01.01-.01.01 1.88.67l1.88.67a3.99 3.99 0 01.08-.2l.25-.64a43.95 43.95 0 015.4-9.49C29.56 11.4 35.36 6.48 43.25 6.4l-.05-4zm46.06 18.06c-5.77 0-10.77-2.08-16.35-5.47l-2.08 3.42c5.86 3.55 11.6 6.05 18.43 6.05v-4zm-16.35-5.47c-2.44-1.47-4.77-3-7.3-4.58l-2.11 3.4c2.39 1.49 4.9 3.13 7.33 4.6l2.08-3.42zm-7.3-4.58C59 6.28 51.7 2.28 43.22 2.4l.04 4c7.2-.09 13.63 3.3 20.25 7.41l2.11-3.4zm25.41 12.98c1.77-3.33 2.63-8.84-.62-12.81-3.33-4.07-10.06-5.47-21.06-2.6l1 3.87c10.68-2.79 15.22-.88 16.96 1.26 1.83 2.23 1.56 5.82.19 8.42l3.53 1.86zM69.35 7.97c-2.32.6-4.27 1.43-5.87 2.45l2.17 3.37a16.28 16.28 0 014.7-1.95l-1-3.87zm-5.87 2.45c-2.56 1.65-4.2 3.84-4.77 6.36a10.6 10.6 0 001.26 7.43c2.53 4.65 8.1 8.75 15.37 10.86l1.11-3.84c-6.58-1.91-11.09-5.49-12.96-8.94a6.63 6.63 0 01-.87-4.63c.3-1.32 1.18-2.69 3.03-3.87l-2.17-3.37zm11.86 24.65c2.06.6 4.33 1.95 6.24 3.75 1.91 1.8 3.29 3.9 3.78 5.86l3.88-.96c-.73-2.94-2.64-5.67-4.92-7.81a20.1 20.1 0 00-7.87-4.68l-1.11 3.84zm10.02 9.61a5.27 5.27 0 01-.3 3.7c-.57 1.14-1.7 2.36-3.85 3.44l1.82 3.57c2.7-1.37 4.58-3.14 5.61-5.24a9.26 9.26 0 00.6-6.43l-3.88.96zm-4.15 7.14c-6.9 3.5-13 3.42-17.2 1.68-4.26-1.77-6.47-5.12-6.28-8.38l-4-.23c-.3 5.38 3.35 10.06 8.74 12.3 5.44 2.26 12.78 2.15 20.56-1.8l-1.82-3.57zm-23.48-6.7c.05-.96.2-1.36.27-1.47.02-.03 0 .02-.1.08a.46.46 0 01-.16.07h.06a4.57 4.57 0 01.88.2c.6.21 1.33.54 2.25.98 3.59 1.69 9.3 4.68 16.36 4.3l-.22-4c-5.88.32-10.66-2.14-14.43-3.92-.92-.43-1.84-.85-2.67-1.14a6.15 6.15 0 00-2.77-.38 3.56 3.56 0 00-2.67 1.82 7.38 7.38 0 00-.8 3.23l4 .23zm19.56 4.16a25.78 25.78 0 0010.97-3.33l-1.92-3.5a21.8 21.8 0 01-9.27 2.83l.22 4zm10.97-3.33c4.09-2.23 7.57-5.21 10.25-7.67 1.4-1.26 2.48-2.3 3.44-3.16.47-.42.86-.74 1.19-.98.34-.25.5-.34.55-.35l-1.43-3.74c-.54.21-1.06.55-1.5.87-.46.34-.95.76-1.46 1.2-.98.87-2.21 2.05-3.48 3.21-2.64 2.4-5.83 5.12-9.48 7.11l1.92 3.51zm15.43-12.16c-.13.05-.4.13-.77.07-.4-.07-.71-.27-.93-.5-.33-.35-.32-.68-.3-.47.04.3.02.98-.12 2.1-.27 2.22-.85 5.15-1.36 8.35-.48 3.06-.9 6.35-.67 8.82.1 1.2.39 2.57 1.2 3.59a3.64 3.64 0 001.78 1.24c.74.23 1.49.21 2.19.05l-.9-3.9c-.18.04-.2 0-.1.04.04.01.09.03.12.06l.05.04c-.07-.09-.27-.48-.35-1.47-.18-1.92.14-4.75.63-7.85.47-2.94 1.1-6.2 1.38-8.47.14-1.11.23-2.25.12-3.13a3.1 3.1 0 00-.75-1.73 2.35 2.35 0 00-1.34-.72c-.53-.09-.98.02-1.3.14l1.42 3.74zm1.02 23.25c2.54-.59 4.59-2.75 6.17-5a51.2 51.2 0 004.38-7.94c1.24-2.7 2.37-5.45 3.18-7.3.43-.97.77-1.68 1.02-2.12l.17-.26c-.02.01-.12.13-.32.23-.2.12-.62.28-1.16.19l.7-3.94a2.24 2.24 0 00-1.47.25c-.3.17-.53.38-.68.54-.28.3-.52.67-.7.98-.38.65-.79 1.54-1.22 2.51-.9 2.04-1.91 4.55-3.15 7.24a47.4 47.4 0 01-4.01 7.31c-1.5 2.13-2.81 3.18-3.81 3.41l.9 3.9zm13.44-22.2a1.9 1.9 0 01-1.27-.84 1.6 1.6 0 01-.2-.47c-.03-.1-.02-.11-.01.04 0 .29-.01.77-.08 1.49-.12 1.4-.4 3.45-.79 5.93a290.6 290.6 0 01-3.55 18.07l3.9.9c1.52-6.63 2.8-13.3 3.6-18.34.4-2.52.7-4.66.83-6.2.07-.76.1-1.44.09-1.97 0-.24-.03-.57-.11-.89a2.41 2.41 0 00-.3-.72 2.1 2.1 0 00-1.4-.94l-.7 3.94zm-5.9 24.22c-1.5 6.55-3.22 13-4.91 17.73a31.15 31.15 0 01-2.4 5.4c-.37.61-.65.93-.82 1.08-.18.15 0-.08.42-.02l-.56 3.96a3.46 3.46 0 002.74-.9 8.48 8.48 0 001.63-2.02c.95-1.54 1.87-3.7 2.75-6.15a170.02 170.02 0 005.05-18.19l-3.9-.89zm-7.7 24.2c-3.24-.47-5.88-2.56-6.24-5.11-.37-2.52 1.27-6.9 9.89-12.38l-2.15-3.37c-8.9 5.65-12.42 11.3-11.7 16.32.71 4.97 5.4 7.9 9.63 8.5l.56-3.97zm3.65-17.49a459.6 459.6 0 007.1-4.6l-2.2-3.33a463.51 463.51 0 01-7.05 4.56l2.15 3.37zm7.1-4.6c11.13-7.35 13.03-9.57 14.66-11.68l-3.17-2.44c-1.21 1.57-2.68 3.5-13.7 10.8l2.21 3.33zm14.66-11.68c.56-.72 1.18-2.04 1.75-3.4a78.1 78.1 0 001.86-4.93l-3.78-1.3a74.22 74.22 0 01-1.76 4.68 15.35 15.35 0 01-1.24 2.5l3.17 2.45zm3.61-8.33c.74-2.15 1.41-4.38 1.8-6.1.18-.84.32-1.68.33-2.35 0-.31 0-.8-.18-1.29a2.2 2.2 0 00-2.1-1.5v4a1.8 1.8 0 01-1.19-.44c-.29-.26-.42-.54-.46-.67-.09-.23-.06-.35-.07-.18 0 .27-.07.78-.24 1.56a57.1 57.1 0 01-1.67 5.68l3.78 1.3zm-.16-11.24a2.3 2.3 0 00-1.88 1.05c-.22.33-.37.68-.47.96-.2.58-.39 1.34-.54 2.15-.32 1.65-.6 3.87-.83 6.25l3.98.37c.22-2.31.5-4.4.78-5.86.14-.75.27-1.27.38-1.56.05-.16.07-.15 0-.06-.03.05-.13.2-.32.34-.2.16-.58.36-1.1.36v-4zm-3.72 10.4c-.32 3.43-.53 7.28-.5 10.4 0 1.55.07 2.98.22 4.1.07.55.17 1.1.33 1.58.1.36.39 1.16 1.11 1.66l2.3-3.27c.44.3.48.67.4.4a5.7 5.7 0 01-.18-.9 30.9 30.9 0 01-.19-3.6c-.01-2.95.18-6.66.5-9.99l-3.99-.37zm1.16 17.74c1.06.74 2.15.38 2.7.05.52-.3.93-.76 1.23-1.13.63-.78 1.31-1.91 1.99-3.15 1.37-2.5 3.03-5.99 4.68-9.28a77.59 77.59 0 014.85-8.71 9.17 9.17 0 011.77-2.06c.2-.14.23-.1.1-.09a.87.87 0 01-.6-.14l2.33-3.25c-.7-.5-1.51-.69-2.32-.57-.75.12-1.38.46-1.87.82-.97.71-1.87 1.82-2.7 3a81.09 81.09 0 00-5.14 9.2c-1.7 3.42-3.28 6.74-4.6 9.16a19.23 19.23 0 01-1.6 2.56c-.21.26-.27.26-.16.2.14-.08.88-.41 1.64.12l-2.3 3.27zm16.72-24.51c-.26-.2-.28-.39-.24-.25.03.14.06.43.03.93-.05.98-.31 2.33-.7 3.98-.73 3.15-1.92 7.33-2.3 10.79-.19 1.74-.21 3.54.23 5.08a5.23 5.23 0 003.47 3.73c1.74.55 3.85.28 6.22-.52 2.42-.83 5.4-2.31 9.04-4.55l-2.1-3.4c-3.51 2.15-6.2 3.47-8.23 4.16-2.07.7-3.18.67-3.72.5-.36-.12-.63-.34-.83-1.03a9.65 9.65 0 01-.1-3.53c.34-3.14 1.41-6.85 2.22-10.32.39-1.66.72-3.3.8-4.67.04-.68.02-1.4-.14-2.09a3.48 3.48 0 00-1.32-2.06l-2.33 3.25zm16.46 16.52a9.18 9.18 0 01-.52-7.65c.88-2.5 2.6-4.73 4.47-6.13 1.98-1.48 3.54-1.66 4.3-1.33.57.24 1.72 1.29 1.54 5.31l4 .19c.2-4.48-.99-7.9-3.95-9.17-2.77-1.2-5.93.04-8.28 1.8a17.42 17.42 0 00-5.85 8.02 13.17 13.17 0 00.78 10.9l3.5-1.94zm-3.24 2.31c1.6 1.75 4.05 4.3 7.58 5.33 3.67 1.07 8.05.4 13.24-3.26l-2.3-3.27c-4.47 3.16-7.6 3.34-9.82 2.69-2.36-.7-4.17-2.45-5.74-4.18l-2.96 2.7zm20.82 2.07a55.7 55.7 0 014.51-2.87l-1.98-3.47a59.76 59.76 0 00-4.83 3.07l2.3 3.27zm4.51-2.87a68.03 68.03 0 016.15-3.08c1.8-.8 3.52-1.52 4.94-2.26a11.57 11.57 0 003.77-2.89 8.2 8.2 0 001.74-4.73l-4-.27a4.23 4.23 0 01-.86 2.5c-.5.62-1.27 1.2-2.51 1.84-1.27.67-2.77 1.3-4.71 2.16-1.9.85-4.08 1.87-6.5 3.26l1.98 3.47zm16.6-12.96c.2-2.98-.63-5.5-2.47-7.08-1.84-1.57-4.3-1.9-6.62-1.3-4.65 1.23-9.16 6.14-10.6 14.12l3.95.7c1.24-6.93 4.95-10.23 7.66-10.94 1.36-.36 2.37-.08 3 .46.62.53 1.23 1.65 1.09 3.77l3.99.27zm-19.68 5.74c-.4 2.24-.34 4.25.17 6.03l3.84-1.1a9.35 9.35 0 01-.07-4.22l-3.94-.71zm.17 6.03c1.55 5.46 6.81 7.53 11.69 7.68 4.9.16 10.35-1.52 13.54-4.6l-2.78-2.88c-2.22 2.15-6.52 3.61-10.63 3.48-4.13-.13-7.12-1.78-7.98-4.78l-3.84 1.1zm25.23 3.07a7.97 7.97 0 001.63-2.52c.4-.9.76-1.95 1.1-3 .69-2.18 1.34-4.49 2.32-6.7.97-2.18 2.17-4.05 3.8-5.35 1.6-1.27 3.74-2.1 6.84-1.97l.17-4c-4-.16-7.1.93-9.5 2.83-2.34 1.87-3.87 4.4-4.97 6.88-1.09 2.46-1.83 5.07-2.48 7.09-.33 1.04-.63 1.9-.94 2.6-.32.72-.58 1.1-.75 1.27l2.78 2.87zm-3.02-.28c1.49 2.1 3.55 4 6.1 4.93 2.64.96 5.61.81 8.66-.88l-1.95-3.5c-2.07 1.16-3.84 1.16-5.34.62a9.32 9.32 0 01-4.21-3.48l-3.26 2.31zm14.76 4.05c1.43-.8 2.79-2.3 4.03-3.98a54.9 54.9 0 003.87-6.3l-3.52-1.9a51.14 51.14 0 01-3.58 5.83c-1.16 1.6-2.1 2.5-2.75 2.86l1.95 3.5zm7.9-10.28c5.3-9.84 10.6-24.13 12.04-29.76l-3.87-1c-1.36 5.31-6.54 19.3-11.7 28.86l3.53 1.9zm12.04-29.76a55.1 55.1 0 001.3-6.67c.27-2.2.37-4.42.08-6.2a6.69 6.69 0 00-.93-2.6 3.65 3.65 0 00-2.62-1.69 5.1 5.1 0 00-3.1.75c-.96.53-1.97 1.34-3.06 2.4l2.78 2.87a11.4 11.4 0 012.23-1.78c.56-.31.73-.26.65-.27-.18-.02-.26-.15-.22-.09.08.13.22.44.32 1.05.2 1.22.15 3-.1 5.06-.26 2.04-.7 4.22-1.2 6.18l3.88.99zM231.8 3.18c-1.8 1.75-3.21 4.48-4.31 7.6a61.8 61.8 0 00-2.62 10.9c-1.24 7.97-1.5 17.08-.53 24.58l3.97-.52c-.91-7.07-.68-15.8.51-23.45.6-3.82 1.42-7.32 2.44-10.18 1.03-2.91 2.18-4.96 3.32-6.06l-2.78-2.87zm-7.46 43.08c.38 2.92.95 5.64 1.74 7.98a16.08 16.08 0 003.24 5.88l2.91-2.75a12.2 12.2 0 01-2.36-4.42 38.16 38.16 0 01-1.56-7.2l-3.97.5zm4.98 13.86a5.37 5.37 0 002.54 1.57c.99.26 1.96.18 2.85-.1 1.7-.52 3.29-1.79 4.74-3.2a69.76 69.76 0 004.63-5.16c1.61-1.92 3.25-3.93 4.99-5.88 3.5-3.95 7.07-7.25 10.7-8.6a8.89 8.89 0 015.26-.39c1.79.43 3.76 1.5 5.9 3.59l2.8-2.87c-2.54-2.46-5.13-3.98-7.76-4.6-2.66-.64-5.2-.35-7.58.53-4.65 1.71-8.79 5.71-12.31 9.68-1.79 2-3.5 4.1-5.06 5.98a66.27 66.27 0 01-4.36 4.86c-1.36 1.32-2.39 2.02-3.13 2.24-.32.1-.52.09-.65.05a1.42 1.42 0 01-.65-.45l-2.9 2.75zm41.61-18.17c2 1.94 3.72 5.16 5.06 9.56 1.33 4.38 2.23 9.77 2.7 15.87.96 12.2.2 27.06-2.07 42-2.28 14.96-6.05 29.9-11.1 42.31-5.07 12.48-11.29 22.06-18.25 26.66l2.2 3.34c8-5.29 14.6-15.81 19.76-28.5 5.19-12.75 9.03-28.02 11.35-43.2 2.3-15.18 3.1-30.35 2.1-42.92-.49-6.29-1.43-11.98-2.87-16.72-1.43-4.7-3.4-8.65-6.09-11.27l-2.79 2.87zM18.02 26.27l-1.83-.78-.01.02a16.43 16.43 0 00-.12.28l-.36.88c-.3.76-.75 1.88-1.3 3.32a210.88 210.88 0 00-4.12 12.16 217.7 217.7 0 00-8.38 40.2c-3.33 31.37.86 69.39 31.81 94l2.49-3.14C6.87 149.89 2.6 113.66 5.88 82.77a213.7 213.7 0 018.23-39.44 206.87 206.87 0 015.3-15.16 78.47 78.47 0 01.45-1.09v-.01l-1.83-.8z" opacity=".8"/>
  <path fill="#22C373" d="M81.82 155.36c-9.3-7.16-21.46-9.27-32.08-4.43-15.88 7.26-22.28 27.33-14.29 44.84 2.83 6.2 9.27 15.13 21.82 25.6 12.36 10.32 40.06 22.02 60.28 13.57v.02a23.97 23.97 0 00.99-.45v-.01c19.62-9.75 28.93-38.34 29.24-54.43.3-16.35-2.23-27.07-5.05-33.26-8-17.51-27.35-25.83-43.24-18.58-10.62 4.84-17 15.42-17.67 27.13z"/>
  <path fill="#FBA651" d="M200.1 156.37c-1.26-11.66-8.17-21.9-19.02-26.2-16.23-6.44-35.14 2.84-42.24 20.74-2.51 6.32-4.5 17.16-3.36 33.47 1.12 16.05 11.86 44.14 31.95 52.88v.02a43.58 43.58 0 001 .4v-.02c20.63 7.41 47.7-5.67 59.52-16.6 12.01-11.1 18-20.34 20.5-26.67 7.1-17.9-.3-37.62-16.54-44.06-10.84-4.3-22.89-1.58-31.8 6.04zM136.91 116.49a5.18 5.18 0 013.16-4.35c2.7-1.07 5.84.47 7.02 3.44.41 1.05.75 2.85.56 5.56-.19 2.67-1.97 7.33-5.31 8.78l-.08.04-.09.03c-3.42 1.23-7.92-.94-9.88-2.76-2-1.84-2.99-3.38-3.4-4.43-1.18-2.97.05-6.24 2.74-7.31 1.8-.72 3.8-.27 5.28 1zM139.76 95.8a3.35 3.35 0 012.04-2.8c1.74-.7 3.77.3 4.53 2.22.27.68.48 1.84.36 3.59-.12 1.72-1.27 4.73-3.43 5.67l-.05.02-.05.02c-2.22.8-5.12-.6-6.39-1.78a8.45 8.45 0 01-2.2-2.86c-.76-1.92.04-4.03 1.78-4.72a3.35 3.35 0 013.4.65z"/>
  <path fill="#22C373" d="M157.44 105.98a4.06 4.06 0 00-2.47-3.41c-2.11-.84-4.57.37-5.5 2.7-.32.82-.58 2.23-.43 4.35.14 2.09 1.54 5.74 4.15 6.88l.07.02.06.03c2.68.96 6.2-.74 7.74-2.16a10.24 10.24 0 002.66-3.47c.93-2.33-.03-4.9-2.15-5.73a4.06 4.06 0 00-4.13.79zM151.3 88.22c-.08-.7-.49-1.3-1.13-1.56-.96-.38-2.09.17-2.51 1.23a4.66 4.66 0 00-.2 2c.06.95.7 2.62 1.9 3.14h.03l.03.02c1.22.44 2.83-.34 3.54-.99a4.69 4.69 0 001.22-1.58c.42-1.07-.02-2.24-.99-2.62a1.86 1.86 0 00-1.89.36zM20.48 238.89a5.18 5.18 0 013.16-4.35c2.7-1.07 5.83.47 7.01 3.44.42 1.05.75 2.85.56 5.56-.18 2.67-1.97 7.33-5.3 8.78a2.75 2.75 0 01-.17.07c-3.43 1.23-7.92-.94-9.89-2.76-2-1.84-2.98-3.38-3.4-4.43-1.18-2.97.05-6.24 2.75-7.31 1.8-.72 3.8-.27 5.28 1z"/>
  <path fill="#FBA651" d="M260.76 239.32a5.18 5.18 0 00-3.15-4.35c-2.7-1.07-5.84.47-7.02 3.45-.42 1.05-.75 2.85-.56 5.56.19 2.66 1.97 7.33 5.3 8.78l.1.03.07.03c3.43 1.23 7.93-.94 9.89-2.75 2-1.85 2.99-3.38 3.4-4.43 1.18-2.97-.05-6.25-2.74-7.32a5.18 5.18 0 00-5.29 1z"/>
  <path fill="#22C373" d="M23.32 218.2a3.35 3.35 0 012.04-2.8c1.74-.7 3.77.3 4.53 2.22.27.68.49 1.84.36 3.59-.12 1.72-1.27 4.73-3.42 5.67a30.72 30.72 0 01-.1.04h-.01c-2.21.8-5.11-.6-6.38-1.78a8.45 8.45 0 01-2.2-2.86c-.76-1.92.03-4.03 1.77-4.72a3.34 3.34 0 013.41.64z"/>
  <path fill="#FBA651" d="M257.92 218.64a3.35 3.35 0 00-2.04-2.81c-1.74-.7-3.77.3-4.53 2.22a8.46 8.46 0 00-.36 3.6c.12 1.71 1.27 4.73 3.42 5.66l.06.03.05.02c2.21.8 5.12-.61 6.38-1.78a8.45 8.45 0 002.2-2.86c.76-1.92-.03-4.04-1.77-4.73a3.35 3.35 0 00-3.41.65zM41 228.38a4.06 4.06 0 00-2.47-3.41c-2.11-.84-4.57.37-5.5 2.7-.32.82-.58 2.23-.43 4.35.15 2.08 1.54 5.74 4.16 6.87l.06.03.07.03c2.68.96 6.2-.74 7.73-2.16a10.25 10.25 0 002.67-3.47c.92-2.33-.04-4.9-2.15-5.73a4.06 4.06 0 00-4.14.79z"/>
  <path fill="#22C373" d="M240.24 228.81a4.06 4.06 0 012.47-3.4c2.11-.84 4.57.36 5.5 2.69.32.82.58 2.23.43 4.35-.14 2.09-1.54 5.74-4.15 6.88l-.07.02-.06.03c-2.69.96-6.2-.74-7.74-2.16a10.24 10.24 0 01-2.67-3.47c-.92-2.32.04-4.89 2.15-5.72a4.06 4.06 0 014.14.78z"/>
  <path fill="#FBA651" d="M34.87 210.62c-.08-.7-.49-1.3-1.14-1.56-.96-.38-2.08.17-2.5 1.23a4.68 4.68 0 00-.2 1.99c.06.96.7 2.62 1.9 3.14l.02.02h.03c1.23.45 2.84-.33 3.54-.98a4.69 4.69 0 001.22-1.59c.42-1.06-.02-2.23-.98-2.61a1.85 1.85 0 00-1.9.36z"/>
  <path fill="#22C373" d="M246.38 211.05c.07-.7.48-1.3 1.13-1.56.96-.38 2.09.17 2.5 1.23.16.38.28 1.03.2 2-.06.95-.7 2.62-1.9 3.14h.01l-.03.01-.03.01c-1.23.44-2.84-.34-3.54-.98a4.68 4.68 0 01-1.22-1.59c-.42-1.06.02-2.24.99-2.62.64-.25 1.36-.1 1.89.36z"/>
  <path fill="#2D2D2D" d="M79.06 184.04c1.28 2.8-3.13-1.34-6.07 0-2.95 1.35-3.31 7.68-4.6 4.87a5.73 5.73 0 013.02-7.5 5.73 5.73 0 017.65 2.63zM119.47 166.38c1.28 2.8-3.13-1.35-6.08 0-2.94 1.34-3.3 7.67-4.59 4.86a5.73 5.73 0 013.02-7.5 5.73 5.73 0 017.65 2.63zM175.6 175.4c-1.54 2.67-.72-3.33-3.53-4.95-2.8-1.62-8.16 1.76-6.62-.91a5.73 5.73 0 017.86-1.9 5.73 5.73 0 012.29 7.76z"/>
  <ellipse cx="212.3" cy="188.05" fill="#2D2D2D" rx="5.86" ry="5.58" transform="rotate(21.64 212.3 188.05)"/>
  <path fill="#2D2D2D" d="M117.87 197.54c3.24 7.1-.18 15.62-7.64 19.03-7.46 3.4-16.14.4-19.38-6.7-3.24-7.1 5.44-4.1 12.9-7.5 7.45-3.41 10.88-11.93 14.12-4.83zM194.63 211.59c-2.88 7.26-11.39 10.69-19.01 7.66-7.62-3.02-11.47-11.35-8.59-18.61 2.88-7.26 6.72 1.08 14.35 4.1 7.62 3.02 16.13-.4 13.25 6.85z"/>
</svg>
