<svg xmlns="http://www.w3.org/2000/svg" width="4358.7" height="1676.3" viewBox="0 0 1153 444" fill="hsl(60, 10%, 95%)">
  <path d="M772 441v-4-1l-1-15a124 124 0 011-15l-1-3 1-3c0 1 0 0 0 0a59 59 0 010-15l-1-13a105 105 0 011-15v-1-1l-1-4 1-5v-5c1 0 1 0 0 0v-5-5a103 103 0 010-20v-1h1l-1-1v-14h0v-6-6-1c0 1 0 0 0 0h2c2 0 2 0 1 1v1l1 1 1-2v-1h1c2 0 2 0 1 1v3h2c1 1 1 0 1-1v-3h2s0 1 0 0l1 1-1 1-1 2v2l1 2v-3l1-2 1-2v-1l1 1 1 1v-1l1-1v1c0 1 0 1 0 0l1-1v5l1-3c-1-2 0-2 2-2s2 0 2 3v2h1v-1l-1-4h8v4c-1-1-1-1 0 0h1v-4h4l1 1v2l1-2v-1l1 1h1l1-1v2h-1 1v1l1 2c0 1 0 1 0 0l1-3 1-2v6l1-1v-3h1v0l1-2h1l1 1v3l1-1v-2h1l6 4 1 1h1v1c0 1 0 1 0 0h1l3 6 1 40-1 33c-1 5-4 9-7 11l-6 2-1-1v1l-15 1h-7v6a85 85 0 010 13v2c-1 0-1 0 0 0v8c-1 0-1 0 0 0v30h-1l-2-1v-1 1l-8 1h-7v-1 1h-7v-1 1h-2zm13-1h-1v1l1-1zm5 0s-1 0 0 0v-1-2-1 3 1zm-8-1l-1 1h1v-1zm-7-1h1-2v1l1-1zm18-1v1c0 1 0 1 0 0v-1zm-9 0v0zm3 0h-1 1zm3-3v2-1-1zm-11 0h-1 1zm7-1v0zm-11 0c-1 0-1 0 0 0v-1l-1 1 1 1v-1zm19 1l-1-1c-1 0-1 0 0 0l1 1zm-4-2l-1-1v1l1 1v-1zm7 0h-1l1 1v-1zm-3-1h-1v1l1-1zm-15 1l-1-1v1h1zm11-1c0-1 0 0 0 0s0 1 0 0c1 0 1 0 0 0zm4-1h-1v1l1-1zm4-1l-1 1h1v-1zm-5 0v-1-1 2c1 0 1 0 0 0zm-11 0l-1-1v1h1zm16-1v-1 1s1 0 0 0zm-8-1v0zm-2-1l-1-1 1 1zm-12-1c-1 0-1 0 0 0zm15-1h-1v1l1-1zm-16-1l-1 1h1v-1zm4-1l-1 1v1h1v-2zm4 1h-1 1zm7 0c0-1 0-1 0 0v0zm3 0c0-1 0-1 0 0zm6-2h-1v1l1-1zm-24 0l1-1h-1c0-1 0 0 0 0v1zm16 0h-1 1zm2-1v-1 1zm3 0s0 1 0 0zm-16 0v-1 1zm19-1l-1-1v2l1-1zm-16 0v-1l-1 1h1zm7 0l-1-1v1h1zm-10-1h-1v1l1-1zm17 1l-1-1v1h1zm-4-1v-1 1c0 1 0 1 0 0zm-10-1l-1-1v1h1zm7 0l-1-1v1h1zm-10-1l-1-1v1h1zm13-1h-1v1h1v-1zm-16 0h-1 1zm4-1v0zm15 0v0zm-13-1l-2-1v1h2zm10 0h-1v1l1-1zm-18-2v-1 1zm0-2c0 1 0 1 0 0zm3-1v0zm21-1h-1v1l1-1zm-23-1v0zm11 0h-1l1 1v-1zm2 0v-1l-1 1h1zm-7-1h-1l1 1v-1zm-4 0l-1-1v1h1zm7-1l-1-1v1h1l1 1-1-1zm-8-1h-1l1 1v-1zm4 0v-1l-1 1h1zm15-1v0zm-9 0h-1 1zm-2-1h-1v1l1-1zm2-1h-1 1zm-11 0v-1 1zm21 0v-1l-1 1h1zm-16-1v-1h-1 1v1h-1 1zm4 0l-1-1v1h1zm7-2h-1l1 1v-1zm-7 0l-1-1v1h1zm2 0v-1l-1 1h1zm3-2h-1v1l1-1zm-3 0h-1l1 1v-1zm-13-1l1 1-1-1zm11 1l-1-1v1h1zm10-1v0zm-3 0c0-1 0-1 0 0v0zm-14 0h-1 1zm2-1h-1v1l1-1zm10 0c0-1-1-2-2-1h1v2l1-1zm5-1c0-1 0-1 0 0v0zm-21-2c0-1 0-1 0 0l-1 1 1-1zm7 1v-1l-1 1h1zm4-1v0zm-7 0h-1c-2 0-2 0-1 1l2-1zm19 0h-1l-1 1h1l1-1zm-4 0h-1v1l1-1zm-9-1l-1 1h1v-1zm-3 0h-1l1 1v-1zm18 0h-1l1 1v-1zm-2 0c0-1 0 0 0 0s0 1 0 0zm-24-1v0zm23 0h-1v-1-1 2h1zm-8 0h-1 1zm5 0v-1l-1 1h1zm-9 0l-1-1v1h1zm13-1v0zm-19 0h-1c0 1 0 1 0 0h1zm3 0c0 1 0 1 0 0zm12-1h-1 1zm2-1c0 1 0 1 0 0zm-22-1h-1l1 1v-1zm20 0h-1v1l1-1zm-2 0h-1 1zm-5-1l-1-1v1h1zm-9-3v0zm10 0v-1 1zm-7-1v-1 1zm11 0h-1 1zm-15-1h-1 1zm33 0h-1v1l1-1zm17 0h-1l1 1v-1zm-15-1v0c0 1 1 1 0 0zm-39 0v-1 1s1 0 0 0zm48-1h-1l1 1v-1zm-13 0c0-1 0-1 0 0zm16 0l-1-1v1h1zm3 0v-1l-1 1h1zm-1-2h-1l1 1v-1zm-17 0h-1 1zm-13-1c0-1 0-1 0 0v0zm19 0v0zm-30 0h-1l1 1v-1zm8 0v0zm13 0h-2 2zm-18-1v0zm35 1l1-1-1 1c-1 0-1 0 0 0zm-41-1h-1 1zm9-1v0zm-6 0h-1l1 1v-1zm39-1h-1l1 1v-1zm-23 0l-1-1v1h1zm-14-2c0-1 0-1 0 0zm29 0v-1 1s0 1 0 0zm-27 0l-1-1v1h1zm36 0v-1 1zm-34-1h-1v1l1-1zm13 0l-1-1v1h1zm2-1v-1 1s0 1 0 0zm5 0v0zm-20 0zm4 0v-1 1zm-3-2c1 0 0 0 0 0zm-17-1v-1l-1 1h1zm12-2v0zm18 0l3-1 1-9a73 73 0 011-9l-1-2 1-2c0 1 0 1 0 0l-1-1 1-1a189 189 0 01-1-29l-1-4-4-1h-4v8a1824 1824 0 011 51h4zm-25 0h-1 1zm3 0h-1 1zm4-1v-1 1s1 0 0 0zm39 0h-1 1zm-50 0l-1-1v1h1zm1 0v-1 1zm34-1c0-1 0-1 0 0-1 0-1 0 0 0zm-35-1h-1 1zm11-1l-1-1 1 1v1h1l-1-1zm-5 1l-1-1v1h1zm14-3v1h1l-1-1zm-12 1v-1 1zm-9-1v0zm17 0c-1-1-1-1 0 0l1-1h-1l-1 1h1zm2-1l-1 1h1v-1zm-8 0h-1 1zm-12 0v-1l-1 1h1zm25-1h-1v1l1-1zm-20 0l-1-1v1h1zm3-2v-1 1h-1 1v0zm-6-1l-1-1v1h1zm48-2c1 0 1 0 0 0 0 1 0 1 0 0zm-47-2v-2 1a38 38 0 010 2v-1zm-3 0c1 0 0 0 0 0zm5 0v-1c1 0 1 0 0 0v1zm45-1v0zm-27 0h-1l1 1v-1zm-22 0l-1-1 1 1zm40 0h-1 1zm-4-1h-1v1l1-1zm7-1h-1l1 2v-2zm-23 0h-1v1h1v-1zm2 0h-1v1c1 1 1 0 1-1zm-18 1l-1-1 1 1zm-4-1h-1l1 1v-1zm14-2v1s0 1 0 0v-1zm5 1c0-1 0-1 0 0h0zm-17-1l-1 1 1-1zm3 0c0-1-1 0 0 0 0 1 0 1 0 0zm50 1l-1-1v1h1zm-53-2v0zm18 0h-1l1 1v-1zm20 0s0-1 0 0 0 1 0 0zm-32-1h-1v1l1-1zm39 1v-1 1zm-42-1h-1v1l1-1zm15 1l-1-1v1h1zm-19-2l1 1-1-1zm7 0l-1 1h1v-1zm-8 0h-1 1zm55 1v-1h-1l1 1zm-15-2h-1l1 1v-1zm3 1h-1 1zm-33-1v0zm9-1h-1l1 1v-1zm26 1v-1l-1 1h1zm-8-2v1s0 1 0 0v-1zm-34 0h-1l1 1v-1zm3-1l-1-1v2l1-1zm3 0h0c0 1 0 0 0 0zm11 0h-1 1zm28 0h-1 1zm-46 0v-1 1zm3-2v0zm11 0h-1 1zm-16-1h-1l1 1v-1zm10 0v-1c0-1 0-1 0 0v1zm-8 0l-1-1v1h1zm22-2v1c0 1 0 1 0 0v-1zm26 1c-1 0-1 0 0 0v0zm-5 0v-1 1c-1 0 0 0 0 0zm-36-1h-1l1 1v-1zm44 0h-1v1l1-1zm-34-1v0zm-2 0s0-1 0 0h-1 1zm-13 0l-1-1 1 1zm20 0v-1 1zm26-1v-1l-1 2h1v-1zm-50 0c1 0 1 0 0 0l-1 1 1-1zm15 0h-1l1 1v-1zm23 1l-1-1v1h1zm10-2v1s0 1 0 0v-1zm-3 1c0-1 0-1 0 0zm-32 0l-1-1v1h1zm2-1h-1 1zm22 0h-1 1zm-32 0l-1-1h-1l1 1h1zm5-1v-1l-1 1h1zm-10-2c0-1 0 0 0 0h-1v1c-1 1 0 1 0 0l1-1zm7 1s0 1 0 0zm28 0v0zm1 0v0zm7-1h-1 1zm-22-1v0zm25 0v-1l-1 1 1 1v-1zm-22 0v-1 1c0 1 0 1 0 0zm-14 0v-1l-1 1h1zm-11-3h-1l1 1v-1zm11 0v0zm12-1h-1l1 1v-1zm24 1v-1l-1 1h1zm-42-2l-1-1v1l1 1v-1zm-3 0h-1 1zm7-1v-1l-1 1h1zm33-1h-1l-1 1h1l1-1zm8-1c0-1 0-1 0 0h-1 1zm-49-1v0zm21 0h-1 1zm-21-2v1c0 1 0 1 0 0v-1zm4 0v-1l-1 2c0 1 0 1 0 0l1-1zm34 1v-1l-1 1h1zm6-1h-1l1 1v-1zm3 0h-1-1 2zm-37-1l-1-1v1h1zm28 0h-1 1zm-31 0l-1-1v1h1zm-3-1h-1v1l1-1zm43-1h-1v1c0 1 0 1 0 0l1-1zm-46 1l-1-1v1h1zm37-1l-1-2v2c0 2 1 1 1 0zm-34 0h-1s0 1 0 0h1zm-4-1l-1 1h1v-1zm7 0l-1-2a85 85 0 010 3c1 0 1 0 0 0h1v-1zm3 1v-1l-1 1h1zm15-1h-1v1l1-1zm-23-1l-1-1c0-1 0-1 0 0l1 2v-1zm45 0h-1v1l1-1zm-48-1l-1 1c0 1 0 1 0 0l1-1zm14 1v0zm11-1h-1 1zm14 0l-1-1v1s0 1 0 0h1zm-39-1h-1l1 1v-1zm17 0c0-1 0-1 0 0h-1l1-2-1 2h1zm-13 0h-1 1zm44-1h-1v1l1-1zm-25 0h-1c-1 0-1 0 0 0h1zm18 0h-1 1zm-27 0v-1h-1l1 1zm3-2l-1-1v1h1zm18 0c0 1 0 1 0 0zm-31 0v-1 1zm25 0h-1 1zm30 0c-1-1-1-1 0 0zm-11-1h-1 1zm0-2c-1-1-1 0-1 1h1v-1zm2 0v0zm-46 0v-1 1zm34-1zm3-1v-2-1c0-1-1-1-1 1v2l1 1c-1 0-1 0 0 0v-1zm7 0c0-1 0-1 0 0v0zm-22 0l-1-1v1h1zm-24-1v-2 1l-1 2 1-1zm31 0h-1l1 1v-1zm5 1v-1c1 0 1 0 0 0v1zm7 0zm-34-1v-2-1 3zm-3-1h-1l-1 1h2v-1zm6 1h-1 1zm12 0zm34 0v-1-1l-1-1v1l1 1-1 1h1zm-55 0v-1l-1 1h1zm24-1h-1v1l1-1zm24 1v-2l-1 1 1 1zm-52-1h-1 1zm13 0h-1 1zm12-1h-1v1h1v-1zm24 1h-1 1zm8-1h-1v1l1-1zm-22-1v-2l-1-1v3h1l-1 1c1 1 1 1 1-1zm-31 1h-1v-1h2v-1l-1-1-1-2-1-1-1-1v2l2 1-1 1v3h2zm25-1h-1l-1 1h1l1-1zm1 0c0-1 0-1 0 0v0zm-30 0h-1l1 1v-1zm22-1l-1-1v1l1 2v-2zm-9 1v-2h-1v2h1zm12-1h-1l1 1v-1zm13 0l-1-1v2l1-1zm-10 0v0zm12 0h-1l1 1v-1zm9 0v0zm-42-1c0-1 0-1 0 0l-1 1c1 1 1 0 1-1zm4 1h-1 1zm31 0v-1l-1 1h1zm5-2v0zm5 1zm-52 0v-1l-1 1h1zm16-1zm8-6v4c0 2 0 2 1 0l-1-4zm14 4l-1-2-1 1v1l1 1v1l1-2zm-8 1h-1v1l1-1zm9 1c-1 0-1 0 0 0zm17 0v-1h-1l1 1zm-49-1c0-1 0 0 0 0 0 1 0 1 0 0zm28-1c0-1 0-1 0 0v0zm-22 0l1-1v-1c0-1-1-1-1 1v1zm6 1h-1 1zm14-1v-2-2l-1 5 1-1zm20-1c-1 0 0 0 0 0 1 0 1 0 0 0h-1v1l-1 1h1l1-2zm-25-1l-1-3c0 1 0 0 0 0v4c0 3 1 2 1-1zm-28 1v-1l-1-1v3h1v-1zm50 0c0-2-1-3-1 0v2l1-2zm-31 0a93 93 0 010-3l-1 4 1-1zm-15 0v-1l-1 1h1zm33-3l-1-1v1h1zm25 157l1-1 1-20a169728 169728 0 0014-137 72 72 0 0116 0h1l2 1s0 1 0 0c1 0 1 0 0 0h1v-1h22v4a2373 2373 0 0115 155h-26l-1-2a1666 1666 0 01-2-36l-1-2h-13l-2 19-1 20v1h-27v-1zm4-2h-1l1 1v-1zm38-59l-5-68a1675 1675 0 00-5 66l-1 3h5l6-1zm-6-94h-1v1l1-1zm7 0c0-1 0-1 0 0h0zm3-1v-1l-1 1h1zm-25-2l-2 1h1l1-1zm59 79v-79h8v1h1v-1c-1 0-1 0 0 0 1-1 2-1 1 1l1 2 1-1-1-2c0 1 0 0 0 0h13v1-1h2v1h1l1-1c0 1 0 1 0 0h17v1l1-1h4c8 3 13 9 14 19a360 360 0 010 52l-4 8c-2 3-4 5-8 6l-2 1h2c7 2 11 8 12 18l1 29v26h-28v-29c0-33 0-32-2-33l-4-1h-3v63h-28v-80zm27 74h-1v1l1-1zm8-79c2-2 2 0 2-26 0-27 0-26-2-27l-4-1h-3v8c-1 0-1 0 0 0v47h3l4-1zm-14-59v-1 1zm8-1v0zm-8-1c0 1 0 1 0 0zm25-4h-1 1zm-29-1v-1l1-1h-1v2c0 1 0 0 0 0zm38 0v-1l-1 1h1zm-35-1h-1 1zm-9-1v-1l-1 2 1-1zm11 0h-1 1zm-1-1c0-1 0-1 0 0v0zm-9 0l-1-1s-1 0 0 0v1h1zm-3-2l-1-1v2c0 1 0 1 0 0l1-1zm4 1h-1l1 1v-1zm4-1l-1 1 1-1zm11 0c0-1 0-1 0 0zm-5-1v0zm8 0v0zm-15 0h-1 1zm34 0h-1 1zm-44-1v-1l-1 2 1-1zm10-1h-1l1 1v-1zm69 127V303h-15v-21h24l1 1v1h1v1h-1v1h0v1h1v-1l1 1h1l1 1-1-1c0 1 0 1 0 0l-1-1v-1h1c0 1 0 1 0 0 1 0 1 0 0 0l-1-1c0 1 0 0 0 0h1v-2l1 1v1h3c0 1 0 1 0 0v3h-1v2h2v-2l1 1 1-1c1 0 2 0 1-1v1l-1-1c-1 0-1-1 0 0h3v-1h-1l-2-1h-2 2l1-1 1 1h1v-1h1l1 1v2 1l1-1v-1h1l2 1 1-2a13 13 0 010-2h7 1l1 1 1-1h1l3 1-1 1v1l1 9v9h-16v138h-28v-32zm22 30h-1 1zm-1-28zm-8-2h-1 1zm10-11v0zm-14-1h-1 1zm-1-13c-1 0 0 0 0 0 1 1 1 1 0 0zm15-2h-1 1zm-20-1h-1l1 1v-1zm19-6c-1 0 0 0 0 0s1 0 0 0zm4-4l-1-1v1h1zm-20-10h-1 1zm19-7v0zm1-5v-1 1zm-5-3h-1v1l1-1zm5 0v-1 1zm0-4v-1l-1 1h1zm-17-5v0zm13-2v-1 1c0 1 0 1 0 0zm4 1v-1h-1l1 1zm2 0h-1 1zm-3-3v-1c1 0 1 0 0 0h-1l-1-1c-1 0-1 0 0 0v1h1v1 1l1-1zm2-1v0zm0-1h-1 1zm-5-8c1 0 1 0 0 0v0zm3-13c0-1 0-1 0 0-1 0 0 0 0 0s1 0 0 0zm-21-6h-1l1 1v-1zm35-2v-1h-1l1 1zm-24-2h-1 1zm13-5h-1 1v0zm-11 0h-1 1zm1-1h-1l1 1c-1 0-1 0 0 0v-1zm4-3v-1h1c1 1 1 0 1-1v1-1-1l-1 1h-1l-1 2c0-1 0 0 0 0h1zm-9-1v-1l-1 1h1zm14 0h-1l1 1v-1zm14 0v0zm-21 0v-2h1l1-1-1 1-3 1h1v1h-1 2zm6-1h2l-1-1h-1v1c-1 0-1 0 0 0zm13 0h-1 1zm2 0h-1 1zm-30-1l-1-1c1 0 1 0 0 0v1l1 1v-1zm17-1v0zm-13-1h-1l1 1v-1zm26 0v-1l-1 1 1 1v-1zm2-1v0zm-27-1h-1 1zm21 0h-1c0-1 0-1 0 0h1zm5-1h-1v1l1-1zm38 81a2681 2681 0 010-81v-1h7l1 1v1l-1 1c0 2 1 2 1 1v-1-2l1-1 2 1v1h1v0l-1-1 1-1c0 1 0 0 0 0h3v2c-1 3 0 3 1 0l1-2h9l1 1v-1h1v159h-28v-77zm6 73v-1 1zm1-5h-1v1c0 1 0 1 0 0l1-1zm8-8v-1 1zm7-2l-1 1 1-1zm-12-2s-1 0 0 0v0zm-4-2v0zm18-8v0zm-5-1v0zm6-4h-1v1l1-1zm-12 0h-1c0-1 0-1 0 0h1zm0-1v-1 1zm4 0v-1l-1 1h1zm0-2v-1h-1s0-1 0 0l1 2v-1zm-9 0h-1 1zm14-1v0zm-3-1v-1 1zm-3-2v-1 1c0 1 0 1 0 0zm-3 0v-1 1zm6-2v-1c-1-1-1-1 0 0v1c-1 0-1 1 0 0zm-3 0zm-6-1v0zm3 0l1 1-1-1zm-2-8v1s0 1 0 0v-1zm-2-1h-1 1zm8-1h-1l1 1v-1zm-1-9v0zm7-6h-1 1zm-13-27c0-1 0-1 0 0v0zm5-3v-1l-1 1h1zm-2-3l-1-1v1h1zm-7-25h-1 1zm6-1h-1 1zm2 0h-1 1zm0-2c0 1 0 1 0 0zm-8-4l-1-1v1h1zm8-1v-1h-1l1 1zm0-4zm1-2l-1-1v1h1zm0-1l-1-1v1h1zm5-3v-1 1l-1 1h1v-1zm5-2h-1v1l1-1zm-22-2h-1 1zm12-1l-1 1h1v-1zm-9-1h-1v1l1-1zm18 1v-1l-1 1h1zm-4-2h1-1v0zm-2-1l-1-2v4l1-2zm7 1h-2 2zm-20 0c-1 0 0 0 0 0s1 0 0 0zm-1-1v0zm23 0v-1 1h-1 1zm-16-1v0zm13 0c-1 0 0 0 0 0 1 1 1 1 0 0zm3-1h-1l1 1v-1zm-24-1v0zm17 0h-1v1l1-1zm5 0h-1v1l1-1zm11 158l1-1-1-1 1-1v-1l-1-21a235 235 0 011-22 823 823 0 01-1-89l1-17-1-2 1-3v-1h-1 4c1-1 1 0 1 1v2h1l-1-2 1-1c-1 0 0 0 0 0l1 1v-1h1s1 0 0 0l1 2 1-1c-1 0 0 0 0 0v2l1-1v-1-1h14s1 0 0 0h3v1h-1 1v1h-1c-1 0-1 0 0 0s1-3 1 79v78h-28zm7-2h-1s0 1 0 0h1zm18 0h-1 1zm-13-2h-1 1zm-8-1l-1-1v1h1zm3-1l-1 1h1v-1zm5 1h-1 1zm-3-1h-1l1 1v-1zm17 0h-1v1l1-1zm-22-4l-1 1 1-1zm8-3c0-1 0-1 0 0 1 0 1 0 0 0zm12-2h-1v1l1-1zm-16-1v0zm2-1v0zm-7-1v0zm22 1h-1 1zm-19-2l-1-1 1 1zm7-1h-1l1 1v-1zm-9-3v-1 1c-1 0-1 0 0 0zm4-2zm-3 0v-1h-1l1 1zm15-1v-1 1c1 0 1 0 0 0zm-15-1v-1s1 0 0 0v1zm1-10c0 1 0 1 0 0zm1-1h-1 1zm4-2v1h1l-1-1zm-7-4h-1l1 1v-1zm20 0h-1 1zm-16-3v-1 1c1 1 1 1 0 0zm6-3h-1v1l1-1zm-9-5v0zm1-1h-1 1zm3-4s0-1 0 0h-1 1zm1-3h-1 1zm-2-1v0zm-4 0v-1h-1l1 1zm23-6v0zm-22-15h-1 1zm2-7v-1l-1 1h1zm20-12h-1l1 1v-1zm-19-7v-1l-1 1 1 1v-1zm1-9zm-4-7v0zm22-1h-1l1 1v-1zm-16-3h-1 1zm-4-3v-1l-1 1h1zm-4-4h-1 1zm6-1h-1l1 1v-1zm2 0v-1 1zm-8-3v-1c1-1 0-1 0 0v1c1 1 1 1 0 0zm9-1l-1 1 1 1v-2zm-3-1h-1 1zm-5-1c0-1-1-2-1 0v1l1-1zm8 0l-1 1h1v-1zm-3-1c0-1 0-1 0 0zm-7-1h-1v1l1-1zm2-2v-2l-1 1v2l1-1zm-2 0l-1 1 1-1zm12 0h-1v1l1-1zm-11-1h-1 1zm-2-1v0zm1-1v0c0 1 0 1 0 0zm2 0h-1v1l1-1zm14 0v-1l-1 1h1zm-14-1zm-1-1c0-1 0-1 0 0v0zm9 0h-1 1zm14 0h-1 1zm-21-1h-1 1zm20 0v-1 1zm-22-2l-1 1h1v-1zm6 1h-1 1zm5 0l-1-1v1h1zm4 0zm-15-2v0zm11 0v-1l-1 1h1zm-102 2l1-1v1h-1zm-9-2h-1v-1l2 1h-1zm-4 0v-1s0 1 0 0l1 1h-1zm1-1h1s-1 0 0 0h-1zm4 0h1l-1 1v-1zm6 0h0zm-239 0c-1 0-1 0 0 0zm237 0h0zm-264-33c-11 0-19-5-24-12a38 38 0 01-5-18l1-1h-1v-2-2l1 1 2-1h2l-1-1h-1-1c-1 0-2-1-1-2l2 1v1l1-1c0-1 0-1 0 0l2 1h1l-3 3c0 1 0 0 0 0h1v1h1l2-1v1l-1 1 1-1a2063 2063 0 014-1v-2-1s-1 0 0 0l-3-2v-1l1-1 1-1v-1-2c-1 0-1 0 0 0v-2h-2l2-2 2-2v-1c1-1 1-1 0 0l-1 1v1l-1 1h-1l-1 1-1-1v-1h1 1c2-1 1-3 0-2h-2l-1-1-1 1h-1l-1 1-1 2v2c-1 1-1 1-1-1v-1-1l-1 1v2 2h1c0 1 0 1 0 0h4l3-1-1 1h-2l-1 1h-2v1h-2l-1 1 1 1v1l-1-1v-3h1v-1c-1 1-1 1-1-2v-3h1v-1h0v-1l-1 1c0 1 0 1 0 0v-1l1-1 1-1h1v-1c0 1-3 2-4 1l1-1c1 0 1 0 0 0v-2-2-4-3 1h1v1h1v-1-1h-1s0 1 0 0c-1 0-1 0 0 0v-1h-1l1-1 3-3h1l1 1v1l-1 1 1-1 1 1v1h-1l-4-1 1 1h1v2l-1-1v2h-1v1h-1l-1 1h2v1c-1 0-1 0 0 0l2 1h1v2h-1v-1h-1c1 0 0-1 0 0h-1-1v1l-1 2h2l2 1v-1h1v1h1l1-1 1 1c0-1 0-1 0 0h-1s-2 1-1 2v-1h3l1-1 1-1-2 3c-1 0-1 0 0 0l3-1h-1v-1h4l1-1h-2-1-1l-1-1 1-2v-1l-1-1v-1-2h-1l-1-2-1-2v-2l1-1 4-1 1-1h-1-3-1-1-1v-1c2 0 3-2 1-3l-1 1h-3-1l-1 1-1 1c1 0 1 0 0 0h-1l1 1h2l1 1h1a511 511 0 00-5 2v-1-1l-1-1 1-2h1-1v-2a479 479 0 000-10l2-3v2h-1 2c-1 0-1 0 0 0h2c0-1 0-1 0 0l2-1v-1-1-1l-1-1h2l-1-1-1 1h-1l-2 1h1v1h1v1h1v1h-2l-1-1h-1-2v0l-1-15v-15h1l1 1h5v-1l-1-2v-3l-1-1v-1l-1-1h-2-1a3407 3407 0 011-62h-2v-8l2-24c2-15 10-23 26-24h41c16 1 24 8 28 23 2 7 2 4 2 100l-1 95-4 14c-2 4-6 8-10 10a641 641 0 01-54 3zm-19-23v-1l-1 1h1zm3-2h-1v1l1-1zm9-4l-1-1v1h1zm-14-1h-1v1l1-1zm2 0h-1l1 1v-1zm9 0h-1 1zm-15-1l-1-1v1h1zm8 0v-1 1zm40-1l2-3 1-1v-52a936 936 0 010-86 612 612 0 00-3-38c-1-2-1-2-3-2-3 0-6 2-7 5v9l-1 9h1v77c0 85 0 79 2 81s5 3 8 1zm-9 0v-1l-1 1h1zm-41-1h-1 1zm15 0h-1v1l1-1zm3 0s2 0 1-1l-3 1h2zm5 0l-2-1-1 1h3zm-22-1v0zm22-2l-1-1v1h1zm-12 0h-1 1zm3-1h-1v1l1-1zm1-1c1 0 1 0 0 0h-1 1zm5-1l-2-1-3 1c-1 0-1 0 0 0h5zm2 0v-1h-1v1c-1 0-1 0 0 0h1zm-11-1v0zm4 0h-1 1zm21-2h-1l1 1v-1zm-18 0l-1 1 1-1zm-7-1h-1v1l1-1zm11 1v-1l-1 1h1zm-9-2h-1v1l1-1zm2-1h2l-3-1v1h1zm23 0v-1l-1 1h1zm-25-1l-1-1v-1h-1v1l-1 1h-1 3v1l1-1zm9 1h-2 2zm-4-1h-3 3c0 1 0 0 0 0zm18 0h-3 3zm3-1h-1 1zm-23-1h2l-2-1h-2l1 1c0-1 0 0 0 0h1s1 0 0 0zm5-1c1 0 0 0 0 0 0 1 0 1 0 0h-1v1l1-1zm15 1h-1 1zm3 0l-1-1v1h1zm-3-1h-1 1zm-18-2h-1v1c1 0 2 0 1-1zm4 1l-2-1v1h2zm-21-1l-1-1v1h1zm13-1l1-1-2 1h1zm8 0h-1v1l1-1zm7 0l-1-1v1h1zm-26 0l-1-1v1h1zm10 0l-1-1v1h1zm25-2v0zm-18 0h-1 1zm2-1h-1v1l1-1zm-6 0h-1 1zm5 0l-1-1v1h1zm-4-1v0zm7-2l-1 1h1v-1zm2 1h-1 1zm12 0h-1 1zm-26-1l-1 1 1-1zm15 1v-1 1zm8-1l-1-1v1h1zm-32 0l-1-1v1h1zm26-2h-1v1c0 1 0 1 0 0l1-1zm-5 1l-1-1-1 1h2zm-25-1h-1 1zm21-2h-1c-1 0-1 0 0 0h1zm-21-1h-1v1l1-1zm13-2l-2-1h-2 1l1 1v1l2-1zm3 1c1 0 1 0 0 0h-1c-1 0-1 0 0 0h1zm5 0h-1 1s1 0 0 0zm-3-1h-3 1l1 1 1-1zm7 0h-1 1zm-11-1v-1l-1 1h1zm6-1h-1l-1 1 1-1h1zm2 1v-1 1zm-5-2l1-1h1l-1-1-2-1-1 1h2l-4 1h-5l1 1v-1h1v1h1 2l2-1v2l2-1zm8-1h-1s-1 0 0 0h1zm-5 0l-1-1v1h1zm2-1l-1-1c0-1 0 0 0 0 1 0 1 0 0 0v2l1-1zm5 0h-1l1 1v-1zm-13 0h-1 1zm6-1h-1l1 1v-1zm-19 0h-1v1l1-1zm24 0v-1h-1-1 1v1h-1 2zm-7-2l2-1 1-1-1-1h-1s-1 0 0 0l-1 1v-1h-1v1c1 0 1 0 0 0l-1 1h1v1h-1-1l1 1 2-1zm1 0h-1l1 1v-1zm-5 0h-1c0-1-1 0 0 0h1zm-13-2c-1 0-1 0 0 0zm4-1l1-1v-1h-2l-1-1v1h2v1l-2 2 2-1zm-5-1c0-1 0-1 0 0h-1c0-1 0-1 0 0l1 1v-1zm1 1zm11 0h2l-1-1h-3l1 1h1zm4-1l1-1-3 2 2-1zm13 0h-1 1zm-15-1h-1 1zm-3-1h-1l-1 1h1l1-1zm-9 0zm3-1v0zm-1 0h-1l1 1v-1zm2-1v1c0 1 0 1 0 0v-1zm-5 1l-1-1v1h1zm1-2h-1v1l1-1zm25-1h-1v1h1v-1zm-23 1v-1c0-1 0-1 0 0v1zm5 0v-1l-1 1h1zm-3-1h1v-1-1h-1-1l-1-1h-1v1h1v-1 2c1-1 2 0 2 1h-1 1zm19 0h-1v1l1-1zm-22-1h-1v1l1-1zm-1-1h-1 1zm-2-1v0zm9 0h-1v1l1-1zm-7-4l-1-1v1h1zm-2-2v-1c-1 0-1 0 0 0v1h-1l1 1v-1zm9-1h-1v1h-1l2-1zm4 1v-1l-1 1h1zm-10-1c1 0 1 0 0 0h-1 1zm-1 0v-1l-1 1h1zm3-2l1 1 1-1-1-1-2 1v1h1v-1zm-4 0v0zm2 0h-1l1 1v-1zm-1-2h-1 1zm4 0h-2l1 1 1-1zm1-4h-1v-1l-1-1v1h-1v1l-1 1h1l3-1zm-3 0h1-1zm-3 1c-1 0 0 0 0 0zm2-3v-1l-1 1h1zm-3-1l-1-1v1h1zm5-2l1-1-1 1c0 1 0 1 0 0zm-2-3h-1v1l1-1zm3-1l-1-1v1h1zm-1-2l-1-1-1 1h2zm31-7h-1v1l1-1zm22-2c-1-1-1-1 0 0l-1 1h1v-1zm-43 1h-1 1zm43-21h-1l1 1v-1zm0-2h-1l1 1v-1zm2 0h-1 1zm-53-15h-1 1zm0-12c0-1 0-1 0 0zm-3-5h-1l-1 1h1l1-1zm36-18l-1 1 1-1zm-6-2v0zm-33-4l-1-1-1 1h2zm34-3h-1v-1c1 0 1 0 0 0h-1v1l1 1 1-1zm-33-1h-1 1zm32 0l-1-1v1h1zm5-1h-1v1l1-1zm1-1l1 1-1-1zm-5-1h-1l1 1v-1zm5 0h-1c0-1-1-1 0 0h1zm1-5l-1 1h1v-1zm0-2c-1 0 0 0 0 0 1 1 1 1 0 0 0-1 0-1 0 0l-2 1-1 1h2l1-2zm10-1l-1-1v1h1zm-12-1l1-1c1 0 1 0 0 0h-1s-1 0 0 0l-1 1s-1 0 0 0h1zm-2-1h-1v1l1-1zm13-1v1h1l-1-1zm-12 0v0zm-9-1h-1v1l1-1zm7-1v0zm1 0l1-2-1 2zm209 219c-5 0-10-1-14-3-3-2-4-2-6-5-3-2-4-4-5-6l-2-7c-2-7-2-2-2-116V7h42v102c0 114 0 105 2 107 3 3 8 2 10-1l1-2V7h43v103l-1 109c-1 16-6 25-17 28-6 2-7 3-28 3l-23-1zm40-66c0-1 0-1 0 0 0 0-1 0 0 0 0 1 0 1 0 0zm4 0c-1-1-1-1 0 0zm-72-2v0zm0-2h-1l1 1v-1zm72-2l-1-1v1h1zm-72-1l-1-1v1h1zm0-2h-1v1l1-1zm-1-2l1 1-1-1zm66-5v-1l-1 1h1zm9-8v0zm9-2l-2 2 1-1 1-1zm5 2v-1h-1v1h1zm-85-1v-1 1zm82-2v-1 1zm-3-2l-1 1h1v-1zm-10-2v-1h-1l1 1zm-15-2h-1 1zm22-1h-1c0-1 0-1 0 0h1zm-7-1v1h1l-1-1zm-17 0h-1l1 1v-1zm2-1l-1 1v1l1-2zm0 1v0zm19-1h2v-1h-1l-1 1v0zm-4 0v-1 1zm-11-1l-1 1h1v-1zm-2 0h-1 1zm-2 0v-1l-1 1h1zm16-1v-1 1zm4 0c-1 0-1 0 0 0 0 0 1 0 0 0zm-21-2l-1-1h1v2c0 1 0 1 0 0v-1zm5 0v-1 1c0 2 0 2 0 0zm-2 0v-1l-1 1h1zm1 0zm12 0v-1c0 1 0 1 0 0v-1l-1 1a2110 2110 0 001 1zm2 0h-1 1zm8-1c0-1 0-1 0 0-1 0-1 1 0 0zm-7-1c0-1 0-1 0 0v0zm-16-1c0-1 0-1 0 0v0zm14 0h-1v1l1-1zm-3 0v0zm-15-2v0zm17 2v-1h-1l1 1zm11-2l-1-1v2l1-1zm-24 0h-1 1zm15 0l-1-1v1h1zm-13-6v0zm11-1v0zm0-1c0-1 0-1 0 0h0zm-16 0v-1h-1l1 1zm-1-5h-1 1zm15-15v0zm64 139c-9 0-15-3-20-7-5-6-8-12-9-22v-59h40v26l1 27v1c2 2 4 4 6 3 2 0 4-1 5-3l1-24v-25c-1-5-5-11-11-18l-13-12c-13-12-18-17-23-24l-7-16V63 29c3-16 11-24 27-25a312 312 0 0147 2c5 1 10 4 12 7a31 31 0 015 7v3s-1 0 0 0l-1 1v1h1v-1c1 0 2 3 1 4h1v7l-2-1-1 1h1l1 1h1v2h1v4l-1 1 1 3-1 4c-1-1-1 0 0 0l1 2-1 2 1 1v30h-40V63 39c-1-4-7-6-11-2-2 2-2 2-2 25 1 22 1 22 3 27s8 11 19 21l11 9c11 10 18 21 20 32a56 56 0 011 17v26h-1l1 1v3l-1 3c-1 0-1 1 1 1v1 10h-2v1l1-1v-1 2l1 1v3l-1 2-2 1h2v7l-1 2-1 2c-1 0-1 0 0 0l-1 3-2 3-1-1h-2c0-1 0-1 0 0l1 1h2l-1 3-2 1h-2l-1 1v1h1l-10 4-11 1h-1l-15 1-17-1zm33-1v-2l-1 1v1c-1 0 0 0 0 0h1zm1-2v-1 1zm18-2v0zm-10 0l-1-1-1 1h2zm-10-3c1 0 0 0 0 0v0zm22 0l-1 1h1v-1zm-6-1v0zm8 0v-1h-1 1v-1l-1 1-1 1h-1 3c1 1 1 0 0 0zm2-1h-1v1l1-1zm-6 0v-1l-1 1h1zm3-3l-1 1a177 177 0 011-1zm5 1l-2-1 2 1zm-7-1h-1 1zm4 0l-2-1c-1 0-1 0 0 0l1 1h1zm-25 0h-1c0-1 0-1 0 0h1zm27-1h-1 1zm-3-1v0zm-3 0h-1 1zm5 0l-1-1v1h1zm-1-2l-1 1h1v-1zm3 1l1-1-2 1h1zm-4-1h-1 1zm-23 0v-1l-1 1h1zm-1-2l-1 1h1v-1zm28 1v-1l-1 1h1zm-6-1h-2 2zm9-1h-1v-1h-2l1 1h2zm-32 0zm17-1zm11 0h-3v-1h0v1h3zm-6 0l-1-1v1h1zm-17-1h-1 1zm26 0c0-1 0-1 0 0 1 0 1 0 0 0l1-1-1-1-4 2h2v-1c-1 1 0 1 1 1h1zm-1-1v-1l1 1h-1zm-23 0h-1l1 1v-1zm14 0v-1 1zm-19 0l-1-1v1h1zm3-1v-1 1 0zm3 0h-1c0-1 0 0 0 0h1zm10 0v-1l-1 1h1zm3-1h-1l1 1v-1zm10-1v-1h-1l-1 1h2zm-16-1v0zm5 0h-2 2zm1 0l-1-1v1h1zm7-1v-1h-3l3 1zm-28-1v-1l-1-1 1 1v1zm24 0v0zm-16 0v-1 1zm7 0v-1 1zm7-1h-1l1 1v-1zm5 0h-1 1zm3 0c-1 0 0 0 0 0s1 0 0 0zm-2-1c-1 0-1 0 0 0zm-28-1l-1-1 1 1v0zm18 0s0-1 0 0v0zm7 0l3-1s1 0 0 0h-4l-1 1h2zm-5-3h0c-1 1-1 1 0 0zm-14-1s-1 0 0 0zm19-1v-1h1v-1l-2 2h1zm5 0h-2 2zm2-1l-1-1v1h1zm-11 0l1-1c1 0 1 0 0 0h-1l-1-1v2h1zm9-1l-1-1-2-1h-1l1 1v1h3zm-4-2l-2-1 1 1v1l1-1zm7 0v-1l-1 1h1zm-34-1l-1 1h1v-1zm33 0h-1-1 2zm-33-2h-1 1zm31 0h-1c-1 0 0 0 0 0h1zm-2-2h-1v1l1-1zm-8 0h-1 1zm5 0s1 0 0 0h-1 1zm-26-1l-1 1h1v-1zm33 0l-1-1-2 1h3zm-6-2h-1 1zm-2 0v-1 1zm-3-1c1 0 1 0 0 0h-1 1zm6-1h-1l1 1v-1zm-2 0c1-1 0-1-1-1h-1l2 1zm4-1v-1l-1 1h1zm3-2h-1v1l1-1zm-2 0v0zm2-1h-1 1zm-9 0v-1l-1 1h1zm2 0v-1l-1 1h1zm-5-4h-1c-1 0 0 0 0 0h1zm12-2c1-1 0-1-2-1l-1 1h3zm-3-7c-1 0-1 0 0 0zm-2-2h-1l1 1v-1zm2 0h-1 1zm3-1l-1-1c-1 0-1 0 0 0l-4 1h5zm-3 0h0zm4-2c1 0 1 0 0 0h-5 5zm-3-2h-1 1zm-33-3v0zm30-3v0s1 0 0 0zm-54-3zm32-10v0zm24-1l-1-1v1h1zm3-2h-1v1l1-1zm-6 0h-1 1zm-29-1l-1-1 1 1zm-11-2v0zm10-38c1 0 0 0 0 0v0zm25-43h-1 1zm-26-2h-1 1zm0-3l-1 1h1v-1zm23 1h-1 1zm-8-1l-1-1 1 1zm15-1h-1v1l1-1zm4 0h-1v1l1-1zm-11-1l1-1h-1l-1 1h1zm8-1v-1h-1l1 1zm-8-2l-1 1h1v-1zm10 1v-1l-1 1h1zm-1-1h-1v1l1-1zm-10-1v0zm11 0h-1c-1 0-1 0 0 0h1zm-19-1c1 0 1 0 0 0v0zm-14-2c0 1 0 1 0 0zm10 0h-1v1l1-1zm6-1v0zm1-1l-1-1v1h1zm-7-1v-1-1l-1 1 1 2v-1zm-4-1h-1l1 1v-1zm16 0h-1l1 1v-1zm14 0h-1v1l1-1zm-15-1h-1v1l1-1zm-12-1h-1 1zm12 0h-1c1 0 0 0 0 0h-1l2 1v-1zm-3 0v-1 1zm-14-1h-1 1zm13 0h-2 2zm6 0h-1 1zm-3 0v-1l-1 1h1zm-10-1v0zm11 0l-1-1v1h1zm1-1l-1-1 1 2v-1zm-11 0c1 0 0 0 0 0h-1 1zm-1 0v-1l-1 1h1zm-5-1h-1l1 1v-1zm30 0h-1l-1-1-1 1h3zm-17 0v-1l-1 1h1zm-16-1h-1l1 1v-1zm19 0h-1c0-1 0 0 0 0h1zm2-1v-1h-1v2l1-1zm-1-1h-1v1l1-1zm11 1h-1 1zm2-1h-1 1zm-14-1v-1l-1 1h1zm-17-2h-1v1l1-1zm29 0s0-1 0 0 0 1 0 0zm3 0v-1l-2 2 2-1zm-7-2h-1 1zm2 0v-1l-1 1h1zm-32-1l-1-1v1h1zm1 0c0-1 0-1 0 0zm-4 0v-1h-1c-1 1 0 1 1 1zm9-1h-1l-1-1 2 2v-1zm-3-1h-1v1l1-1zm34 0l-2-1 2 1c1 0 1 0 0 0zm-2-1h-1v1l1-1zm-39 0h-1l1 1v-1zm20 0zm-18-1h-1v1l1-1zm8 0v0zm-10-1s0-1 0 0h-1l1 1v-1zm8-1h-1v1l1-1zm2 0h-1v1l1-1zm28 1h-1c0-1 0 0 0 0h1zm-36-1h-1v1l1-1zm19 0h-1c0-1 0-1 0 0h1zm-16-1l1-1h-1l-1-1v2h1zm5-1h-1v1c1 1 1 1 1-1zm-11 0v0zm34 1h-1 1zm6 0h-1 1zm-15 0v-1l-1 1h1zm12 0v-1h-1l1 1zm-35-1h1v-1-1l1-1v-1h1l1-1h-1-1 1l-1 1h-3l1-1 1-1 1 1-1-1h-2l-1 3 1 2c0-1 0-1 0 0l1 2v-1zm-1-2v-1l1 1h-1zm1-1h1v1l-1-1zm7 2h-1v1l1-1zm4 1v-1c0-1 0 0 0 0l-1 1h1zm-6-1c0-1 0 0 0 0s1 0 0 0zm4-1l-1 1h1v-1zm-6 0s-1 0 0 0v0zm-6-2c-1-1-1 0-1 1l1 1v-2zm13 2v-1l-1-1v-1h-1-1l-1-1 1 1 1 2h1l1 1zm16-1h-1 1zm-19 0h-1v-1-1h-1v1l1 1h1zm20 0h-1 1zm-23-3h-1 1zm2 0c0 1 0 1 0 0l-1-1v1h-1 2zm-7-1c-1-2-1-1-1 0l1 1v-1zm11 1v-1h-1l1 1zm-6-1l-1-1h-1l-1-1 2 2c0-1 0 0 0 0h1zm-4-1v0zm7 0v0c0 1 1 1 0 0zm-1 0h-1 1zm-2-1c0-1 0-1 0 0h-1l-1 1h1l1-1zm-3 0h-1l-1-1v-1-1c0-1 0-2-1 0v2l1 1h2zm3-1h-1 1zm-2 0zm3 0v0c1 0 1 0 0 0zm4-2l-1 1c0 1 0 1 0 0l1-1zm-5 0h-2 2zm3-2l-1 1 1-1zm-7 0h-1 1zm3 0h-1 1c1 0 1 0 0 0zm-5 0v-1 1zm6-1v0zm-4 0v-1 1c0 1 0 0 0 0zm8 0zm-8-4c1 0 1 0 0 0v0zm6 0v0zm-1-1h-1c0-1 0 0 0 0h1zm7 0h-1 1zm2-1v0zm-15 0h-1 1zm10 0h-1 1zm2-1v1h1l-1-1zM534 248c-6 0-12-3-16-6-5-4-8-10-10-20v-62h7c0 1 0 1 0 0h34v26l1 30c2 2 7 2 9-1 2-2 2-2 2-26 0-26 0-25-3-31s-8-11-21-23l-12-11a61 61 0 01-18-29l-1-30 1-39c3-14 11-21 25-23h42l12 4 6 4 4 6 4 11 1 30v27h-40V62l-1-24-3-4c-3-1-6 0-8 3v23c0 24-1 24 2 28 2 6 8 11 20 22 9 7 17 15 21 20 5 7 9 15 10 24a657 657 0 01-1 70c-3 14-9 21-21 24l-23 1-23-1zm-19-85v1c0 1 0 1 0 0v-1zm321-36V7h74v33h-31v68h13l14 1c1-1 1 1 1 16v17l-2-1h-14l-12 1v105h-43V127zm32 101v0zm8-12l-1-1v1h1zm0-68h-1 1zm6-8v0c0 1 0 1 0 0zm-10-6h-1 1zm6-5v-1h-1v2h1c0 1 0 1 0 0v-1zm28 0v-1 1zm-2-1v-2 2c0 1 0 1 0 0zm3-2h-1v1l1-1zm-2-2c0-1-1-1 0 0l-1 1h1v-1zm-28 0h-1v1l1-1zm18 0v-1h1-2v1h1zm8-2l-1-1v1c0 2 1 2 1 0zm2-1l-1-1 1 1c0 1 1 1 0 0zm-10 0v-1 1s1 0 0 0zm11-3h1l-2-1h-1l1 1h1zm0-3c0-1 0-1 0 0-1 1-1 1 0 0zm0-2l-1 1-1 1 1-1 1-1zm-5 2l-1-1v1h1zm2-1v-1 1zm1-3v-1l-1 1h1zM25 143V40H14L4 39H3l1-1v-1h1l-1-1v-1-1l1-1 1 1c0 1 0 2 1 1h1c0 1 0 1 0 0h1l1 1v-1l-2-1-1-1v-2-1c-1-1 0-2 1-3l1-1H7 6c0-1 0-1 0 0l-1 1H4v1h1l1 1H4l1 1 1 1H5 4v-1l-1-2v1c0 1 0 1 0 0v-1-1c-1 0-1 0 0 0v-1-2H2v-1l1-2c-1 0 0 0 0 0v-1l-1-1 1-1 1 1-1 2 2-2h1l-1-2c-1 0-1 0 0 0l1-1H5l-1-1h2l-1-1h1l2 2v2h1v-1l1-1h1l1 2-1-3H9v-1l1-1H8 7 6v-1h2l1-1H8v1l-1-1H6l-1 1v-1l1-1h1V9H6c-1 1-1 0-1-1H4C3 8 2 9 4 9v2H3l-1-1c0-3 1-3 3-3l2 1 1-1h10v0h18a345 345 0 0122 2v1 1c1-1 2-3 1-4l1 2h1V8l-1-1h31v33H68v207H51a103 103 0 01-18-1l-4 1h-4V143zm8 101v-1c1 0 1 0 0 0v-2c0-1 0-2-1-1v5h1v-1zm-1-4h-1v1l1-1zm2-2h-1v1h1v-1zm-2 0v-1s-1 0 0 0l-1 1v1l1-1zm0-2v0zm1-5v0zm1 0v0zm2 0v-1l-1 1h1zm1-2h-1v1l1-1zm-2 0l1-1h-1l-1-1v2h1zm1-2v0zm-1-3h-1s-1 0 0 0l-1-1v2l2-1zm0-2v1c0 1 0 1 0 0v-1zm0-2h-1 1zm1 0h-1v1l1-1zm-5-38l-1-1v1h1zm-2-2zM51 71h-1 1zm3-1l-1-1v1h1zm-7-8v0c1 0 1 0 0 0zm5-13h-1l1 1v-1zm4 0h-1 1c0 1 1 1 0 0zm0-1l-1-1v1h1zm-7-9l1-1-1 1-1 1c1 1 1 1 1-1zM7 39v-2c1 0 1 0 0 0h2v-1H8 6l1 3c1 0 1 0 0 0zm3-1v-1l-1 1v1l1-1zm3-1l1-1-1-2v-1l1-2-1-1-2-1h-1l-1 1v2c1 1 1 1 0 0H8l3 1 1 1h1l-1 1v3l1-1zm0-2h1-1zm-1-2h1l-1 1v-1zm0-1l-1-1h1v1zm-3-1h1s1 0 0 0H9zm-3 5l-1 1h1v-1zm20 0zm-8-2c0-1 0-1 0 0v0zm35 0h-1v1l1-1zm-35-3v0zm-5-2l-1-1h-1l2 2v-1zm-4-1H8v1l1-1zm11 0h-1v1l1-1zm-10-1v-1l1-1h-1v2l1 1-1-1zm8 0h-1v1l1-1zm-4 0h-1 1zm7 0v-1 1zM5 25l-1-1v2h1v-1zm8 0c0-1 0-1 0 0v0zm-7-2v-2-1 3l-1-2H4l-1 1v1l1 1h2v-1zm3 0l1-1-1-1v-1-1c1 0 1 0 0 0H8s0 1 0 0c-1-1-1 0-1 2v2l1 1 1-1zm4 0l-1-1v-1c-1 0-2 1-1 2v-1c1 0 1 0 0 0h1v1h1zm6-1h-1 1zm2 0v-1 1zm33 0v-1 1zm-1 0v-1l-1 1h1zm4-2h-1v1l1-1zm-45-1v-1c-1 0-2 1-1 2l1-1zm7 0l1-1-1 1c0 1 0 1 0 0zm33 0v-1l-1 1h1zm-42-1H9v1l1-1zm1-1l-1 1h1v-1zm42 0h-1l1 1v-1zm-5-1c1 0 1 0 0 0v0zm9-1l1-2h-1v1l-2-1h0v2h2zm-46-2v-3l-1 1v1c1 0 1 0 0 0v2c0 1 0 1 0 0l1-1zm8-1h-1l1 1c0 1 0 1 0 0v-1zm34 1h-1l1 1v-1zm-32-1h-1 1zm30 0h-1 1zm5-1h-1v1l1-1zm-6 0v-1-1l-1 1v1h1zm4-1V9l-1 2 1-1zm-44 0V9 8v1H9l1 2v-1zm41 0c0-1 0-1 0 0v0zm4 0l1-1V8l-2 1 1 1c-1 1 0 1 0 0zm2-1l-1 1h1c0 1 0 1 0 0V9zm-38 1h-1 1zm-1 0V9l-1 1h1zM9 9l1-1-1-1v1 1zm11-1c0-1 0 0 0 0s0 1 0 0zM6 8L5 7v1h1zm1 0L6 7v1h1zm89 119V7h43v4 97h13V7h42v240h-42V141h-13v106H96zm58-114v-1 1zm9-3c1 0 0 0 0 0l-1 1 1-1zm38 117V7h74v33h-32v68h29v33h-29v73h32v33h-74zm120 119h-1v-1a18021 18021 0 010-238V6h42v25a219 219 0 01-1 32v5a610 610 0 010 48l1 39v40l-1-1v1l1 8v7h-1l-1-1v6l1-1h1v1l1-1 5-1h4v1l10-1h10v33h-3l-5-1v-1 2h-15v-1s0 1 0 0v-3l-1 2v-1-1l-1 1 1 2v1h-12c0-1 0-1 0 0h-16a205 205 0 01-19 0zm27-1h-1v-1 1h1zm34-1l-1-1v1h1zm-58-1h-1 1zm5 0h-1 1c1 0 1 0 0 0zm31 0l-1-2v-1l1 3zm4-1l-1-1v2c0-1 0 0 0 0l1-1zm21 1l-1-2v1l1 1zm-57-1h-1 1zm16 0l-1-1v1h1zm3-1h-1 1zm21 0v-1l-1 1h1zm-23-1h0v0zm3 0v-1l1 2-1-1zm29-1v1c-1 0-1 0 0 0v-1zm-16 0v-1l1 1-1-1v1zm-19 0s-1 0 0 0v0zm-1-1v0zm36 0l-1-1v1h1zm3 0v-1 1c1 0 1 0 0 0zm-14 0v-1s-1 0 0 0v1zm15-2l1-1h-1v1zm-23 0v-1l-1 1v1l1-1zm4 0h-1v1l1-1zm5-1v-1c-1-1-1-1-1 1v1l1-1zm-20-1h-1v1c1 1 1 0 1-1zm27 0h-1l1 1v-1zm-16-1h-1 1zm11 0h-1c0 1 0 1 0 0h1zm-10 0l-1-1v1h1zm20-1v0zm2 0h-1 1zm-13 0v-1l-1-2v-2h-1c0-1 0-1 0 0l1 5h1zm16-2c-1 0-2 0-1 1h1v-1zm-27-1v0zm3 0l-1-1 1 2v-1zm17 1v-1 1zm-29-1v-1 1zm9-2c0-1 0-1 0 0v0zm31 1v-1 1zm-4-1l-2-1v1h2zm-21 0h-1 1zm-7-1h-1v1l1-1zm2 0v-1 1zm32-2l-2-1h1v1l1 2v-1-1zm-35 1h-1 1zm28 0c0-1-1 0 0 0zm-24-1l-1-1v1h1zm0-1l1 1-1-1zm-5 0c-1 0 0 0 0 0zm23 0l-1-1v1h1zm1-1h-1 1zm-20-3v2h1l-1-2zm6 1h-1v1c0 1 0 0 0 0l1-1zm-2-1v-3 3zm15 0l-1-1 1 1zm-3-1c0-1 0-1 0 0v0zm-6-3v-2l-1 3c0 3 1 2 1-1zm-10 2v0zm-12 0h-1 1zm11-1v-1c0 1 0 0 0 0h-1l1 2v-1zm18-1c0-2-1-2-1-1l1 2v-1zm-17-2l-1-1v1h1zm-2-2v0zm2-1h-1c1 2 1 2 1 0zm-2-2l-1 1h1v-1zm1 0l-1-1v1h1s0 1 0 0zm1-2h-1v1l1-1zm3-1l-1-1v1l1 1v-1zm-5-8h-1 1zm3-8v-1l-1 1h1zm-2-1v0zm3-1l-1-1v1h-1 2zm1-1l-1-1v1h1zm-16-13h-1v1l1-1zm13-16h-1 1zm1-5h0zm1-1h-1 1zm-4-8v1c-1 0 0 0 0 0v-1zm3-2h-1 1zm-10-1h-1v1l1-1zm-9-4v-1h-1l1 1zm1-12h-1 1zm20-12c0-1 0-1 0 0h-1 1zm-2-31v1s0 1 0 0v-1zm1 1c0 1 0 1 0 0 0 0 1 0 0 0zm0-29v-1 1zm-13-7v-1 1c-1 0 0 0 0 0zm14-10c0-1 0-1 0 0v0zm-1-1h-1 1zm-37-1l-1-1v1h1zm-2 0v-1l-1 1h1zm2-3v0zm-1-2h-1l1 1v-1zm0-2l1-1h-1v1zm1-5h-1 1zm-2-1h-1 1zm2-1c0-1 0-1 0 0l-1 1h1v-1zm0-1l-1-1v-1l1-1-1 2 1 1zm-1-3l-1-1v1h1zm0-4c-1 0-1 0 0 0zm73 233a131 131 0 012-19l1-6 1-2v-2 2l-1-1 1-1v-5h1l-1-1 1-7a2429 2429 0 006-61A14596964 14596964 0 00419 7l32-1h32l1 10a25140 25140 0 0022 229v1h-41a492 492 0 00-4-53v-7h-20l-1 4a13467 13467 0 01-4 54v2h-24v-1h-1c1 1 1 1-1 1l-1-1h-1v1h-13v-1zm8 0h-1l1 1v-1zm9-1c0 1 0 0 0 0h-1l-1 1h1l1-1zm0-1h-1 1zm3-2v-1 1zm-12-4h-1 1zm0-2h0v-1l-1 1h1zm10-2v1h1l-1-1zm0-3c0-1 0-1 0 0zm12-1h1v-1h-1-1c0-1 0-1 0 0a4238 4238 0 001 1zm1-4v-1l-1 1h1zm-22-1h-1v1l1-1zm0-1v0zm17 0v0zm5 1v-1 1zm-1-1l-1-1v1h1zm-14-2h-1v1l1-1zm-7 0v-1 1zm5-1v0zm1 0c0 1 0 1 0 0zm17 0l-1-1v1h1zm-16-1v-1l-1 1h1zm2 0h-1 1zm13-1l1-1v-3c-1-1-1 0-1 1v3zm-14-1v-1h-1v1h1zm-2-2v1s0 1 0 0v-1zm3-1l-1-1v1h1zm-2-3h-1v1l1-1zm1 1v-1h-1l1 1zm-3-2v-1h-1v1c1 0 1 0 0 0v1l1-1zm-8 0h-1 1zm23-2v-1l-1 1 1 1v-1zm-15-1l-1-1v1c1 0 1 0 0 0v1l1-1zm2 0l1 1-1-1zm13-4h-1 1zm-23 0v-1l-1 1h1zm10-2v-2h-1v2h-1s0-1 0 0l2 2v-2zm1-2l-1 1 1 1v-2zm1-4h-1v1l1-1zm-2-1h2v-1h-3v-1 2h1zm-9-5c0-1 0-1 0 0l1 1-1-1zm10 0s0-1 0 0 0 1 0 0zm-3-1v-1l-1 1h1zm4 0v-1 1zm-10-1l-1-1v1h1zm14-1l1-1h-2v-1c-1-1-2 0-1 1l1 1 1 1v-1zm-4-1l-1 1 1-1zm-10-1h-1l1 1v-1zm10 0h-1 1s0 1 0 0zm-4 0v-1l-1 1h1zm2-2h-1v1l1-1zm6 0c0-1 0-1 0 0v0zm-3 0h-1 1zm-3-3l-1 1v1l1-2zm1 0l-1 2 1-1v-1zm7 1h-1v1l1-1zm8 0h-1 1zm-1-1l-1-3v3h1zm-17-1v-1 1l1 1-1-1zm3-1l-1-1-1-1 1 2h1zm6 0h-1l1 1v-1zm0-1l1 1-1-1zm8 0c0-1 0-1 0 0zm0-1h-1 1zm-6-1l-1 1h1v-1zm6-20h-1l1 1v-1zm32-4a193 193 0 01-1-12 2291 2291 0 01-6-84 469 469 0 00-3 40 10044 10044 0 00-5 58v1h15v-3zm-20 0v0zm-25-1h-1 1zm24-2c0-1 0-1 0 0v1h1l-1-1zm-24 1l-1-1v1h1zm2-4l-1 1h1v-1zm0-1c0-1-1 0 0 0 0 0 0 1 0 0zm-1-1h-1 1zm15-2s0-1 0 0v0zm-6-1v-1 1zm4-1v-1l-1 2h1v-1zm3-1v-1l-1 2h1v-1zm62 0c0-1 0 0 0 0 0 1 0 1 0 0zm-70-1l-1 1h1v-1zm-5 0h-1v1l1-1zm59 0s0 1 0 0zm-33-1l-1-2v1l1 1c0 2 0 1 0 0zm-13 0h-1v1l1-1zm6 0v-1l-1 1h1zm40-2l-1-1v1l1 1v-1zm3 2v-1 1zm-51-1c0-1 0-2-1-1l1 2v-1zm-3-1h-1v1l1-1zm55 0h-1v1l1-1zm-59 0h-1v1l1-1zm12 0s0-1 0 0h-1 1zm10-2v-1c-1-1-1 0-1 2h1v-1zm27 1h-1l1 1v-1zm13 0h-1v1l1-1zm-16 0h-1l1 1v-1zm-50 0c0-1 0-1 0 0zm19 0h-1 1zm-20 0v-1l-1 1h1zm15-1v0zm6 0v-1 1zm30-1v1s0 1 0 0v-1zm-31 1v-1l-1 1h1zm44 0l-1-1v-1 2h1zm-57 0v-1 1zm42 0v-1 1zm10-1v0zm-53 0l-1-1v2l1-1zm6 0zm37-1v-1 1c1 1 1 1 0 0zm8 1l-1-1v1h1zm-42-1h-1 1zm3-2l-1-1v-1 3l-1 1 2-2zm44 1v0zm-18 0h-1 1zm-42 0l-1-1v1h1zm13 0l-1-1v1h1zm6 0l-1-1 1 1zm36-1c0-1 0-1 0 0l-1 1 1-1zm-7-1c0 1 0 2 1 1l-1-1zm-44 0l-1-1v1h1zm1 1v-1 1s1 0 0 0zm5 0v-1 1zm31 0v-2-1-2-1c-1-1-2 0-2 1v1l1-1c0-1 0-1 0 0v5h1zm-23-1v-1l-1 1h1zm-6-1h-1 1zm8-2c1-2-1-1-2 1v1h1l1-2zm-15 2l-1-1v1h1zm21 0v-1 1zm27-1h1v-2h-2v2l1-1v1h-1v1h1v-1zm-36 0v0zm32 0l-1-1c0-1 0-1 0 0v1h1s0 1 0 0zm18 0h-1l1 1v-1zm-55 0v-1l-1 1h1zm34-1v-1l-1 2 1-1zm-42 0v-1l-1 1v1l1-1zm72-1h-1v1l1-1zm-58 0h-1l1 1v-1zm-17-1v0zm7 0h-1 1zm11-1h-2l1 1c0 1 0 1 0 0l1-1zm27 1l-1-3v1l1 2zm-4-1h-1v1l1-1zm10 0h-1l1 1v-1zm-46 0h-1 1zm44 0l-1-1v1h1zm-30-1h-1 1zm32-1h-1v1l1-1zm3 0h-1c0 1 0 1 0 0h1zm-33-2v0zm-4-1l-1 1c0 1 0 1 0 0l1-1zm36 0v0zm-34 0h-1 1zm26-1l-1 1h1v-1zm13 1h-1-1 2zm0-1v-1h-1l1 1zm-46-1c0-1 0-1 0 0zm5-1h-1v1l1-1zm42-2h-1l1 1v-1zm1-4v0zm-3-5l-1 1h1v-1zm3 0h-1 1zm4-2c1 0 0 0 0 0v0zm-16-1v0zm161 45V39h-23V6h42a1603 1603 0 0146 2v1 30h-23v207h-42zm50-114l-1-1v1h1zm0-7c0-2 0-2-1-1v2l1-1zm7-1h-1 1zm1-1l-1-2v-1h-1l1 2 1 1v0zm-8-1v0c0 1 0 1 0 0zm7 1v-1l-1 1h1zm-3-1h-1l1 1v-1zm5 0v-1l-1 1h1zm5-1c0-1 0-1 0 0-1 0-1 0 0 0zm-5-1v-1l1-1-1 1-1 1h1zm-9-1v-2 2zm9-2h-1c0-1 0-1 0 0h1zm2-2h-2v1l2-1zm2 0h-1 1zm-4 0l1-1h-1l-1 1c-1 0-1 0 0 0h1zm-11-2v0zm11 0l2-1V7v1l-1 1-1 1c-2 1-2 1 0 0zm-1-1V8h0l1 1h-1zm6-1l-1 1 1-1zm-1 0h-1 1zm448 235h1-1zm-400-28v-1h2l-1 1h-1zm-7-4v0zm10 1v-1 1zm-3 0l1-1v1h-1zm-1-2v-1l1 1h-1zm-4-1h1v1l-1-1zm3 0v-1l1 1h-1zm3-1v-1l1 1h-1zm-3-1c-1 0-1 0 0 0h0zm4-1h0zm-5-2h1v1l-1-1zm-2 0l1-1h1v1h-2zm3-1v-1h1c1 1 0 1-1 1zm2-2zm-2-1h1v1l-1-1zm1 0l1-1v1h-1zm1-7h0zm3 0h1l-1 1v-1zm-10 0h0zm10-1l1-1v1h-1zm-4-1c-1 0-1 0 0 0v-1c1 0 2 0 1 1h-1zm2-2h-1-1l-1-1c-2 1-2 0-1-1h2l1 1 1-1v1l1 1 2-1-1 1h-1-1zm-1-4c0 1 0 1 0 0zm-3-2h1v1l-1-1zm-5-2h1v1l-1-1zm7-3v-1l1-1v2h-1zm-3-2h2-1v1l-1-1zm3-15v0zm0-3v0zm-1-28zm-5-5h1l-1 1v-1zm2-1s-1 0 0 0zM3 37v-2l1 1-1 1zm4-3v1-1zm-4-1l1-1v1H3zm4-6zm1-10v-1l1 1H8zm0-2l-1-1 1-1v2h1l-1 1v-1zm-6 0h1l-1-2 1-1v4l-1-1z"/>
</svg>
